<svg id="Layer_1" data-name="Layer 1" xmlns="http://www.w3.org/2000/svg" viewBox="0 0 960 233.12"><defs><style>.cls-1,.cls-5,.cls-6{fill:#2a2465;}.cls-2,.cls-3{fill:none;stroke:#ffe35c;stroke-miterlimit:10;stroke-width:2.72px;}.cls-2{stroke-dasharray:5.41 5.41;}.cls-4{fill:#ffe35c;}.cls-5,.cls-6{font-size:20px;font-family:NotoSansKR-Regular-KSCpc-EUC-H, Noto Sans KR;}.cls-5{letter-spacing:-0.03em;}.cls-6{letter-spacing:-0.03em;}</style></defs><title>introduce_article01-11</title><path class="cls-1" d="M376.17,114.31l-.26-.08.77.25Z"/><path class="cls-1" d="M516.94,130.64V74.23l-24.11-2.18h-.16c-1.07,0-1.61.51-1.61,1.52a1.39,1.39,0,0,0,.4.91,1.35,1.35,0,0,0,1.05.45l8.8.91v15.8H468.36V74.23l-24.11-2.18h-.16c-1.07,0-1.61.51-1.61,1.52a1.39,1.39,0,0,0,.4.91,1.35,1.35,0,0,0,1.05.45l8.8.91v69.63c7.52-1.82,11.41-5.14,13.43-8.18h35.15v8.18C517.52,141.55,516.94,130.64,516.94,130.64Zm-15.63-10.57v11.77h-33a7.49,7.49,0,0,0,.08-1.2V97.09h32.95Z"/><path class="cls-1" d="M416.32,87.7a82.65,82.65,0,0,1-19.71,5.45,147,147,0,0,1-16.49,1.51v0l-.93,0c-1.64.06-3.35.09-5.07.11-10.8.22-13.3.15-13.3.15V51c0-2.55-.22-5-.22-5-1.51-5.08-4.66-6.14-6.4-6.32H338.79c-1.07,0-1.61.57-1.61,1.71s.54,1.7,1.61,1.7h6.07V96.56a11.53,11.53,0,0,0,.82,3.4,5.73,5.73,0,0,0,1.91,2.31,6.25,6.25,0,0,0,3.69.93h19.86a120.2,120.2,0,0,0,20.59-1.62,109.84,109.84,0,0,0,17.06-4.26,82.86,82.86,0,0,0,13.77-6c2.36-1.36,4.6-2.73,6.73-4.09V80.54A97.07,97.07,0,0,1,416.32,87.7Z"/><path class="cls-1" d="M444.92,61.83h24.39A11.87,11.87,0,0,0,466,53.4a10.81,10.81,0,0,0-13.78-1.8,11.46,11.46,0,0,0-4.09,4.6h-3.24V26.11l-24.11-2.46h-.16c-1.07,0-1.61.57-1.61,1.7a1.64,1.64,0,0,0,.4,1,1.28,1.28,0,0,0,1.05.51l8.8,1v78.36c16.21-4.4,15.63-16.68,15.63-16.68Z"/><path class="cls-1" d="M556.63,100.21H581a11.86,11.86,0,0,0-3.28-8.43A10.78,10.78,0,0,0,564,90a11.39,11.39,0,0,0-4.09,4.6h-3.24V64.49L532.52,62h-.16c-1.07,0-1.61.57-1.61,1.7a1.65,1.65,0,0,0,.41,1,1.26,1.26,0,0,0,1,.51l8.81,1v78.36c16.21-4.4,15.62-16.68,15.62-16.68Z"/><path class="cls-1" d="M568.35,197.32a2.71,2.71,0,0,0-1.92-.75l-6.41-1.7V158.43a5.3,5.3,0,0,0-1.4-3.42,8.5,8.5,0,0,0-1.64-1.48,12.85,12.85,0,0,0-7.4-2.08,14.26,14.26,0,0,0-5.45,1,9.21,9.21,0,0,0-3.61,2.55h-52.9l-15.5-1.4-8.48-.77h-.17c-1.07,0-1.61.51-1.61,1.51,0,0,0,.06,0,.09v0a1.4,1.4,0,0,0,.39.84,1.36,1.36,0,0,0,1.05.46l8.8.9v52.63c6.76-1.63,10.58-4.47,12.76-7.23h81.55a2.62,2.62,0,0,0,1.92-.82,2.76,2.76,0,0,0,.8-2A2.43,2.43,0,0,0,568.35,197.32Zm-27-.75H487.51a10.24,10.24,0,0,0,.24-1.92V160.46h53.58Z"/><path class="cls-1" d="M443.4,151.9a12.37,12.37,0,0,0-4.53-5.93q-1.28-.78-5.76-3.91c-3-2.11-6.32-4.35-10-6.77s-7.3-4.75-10.88-7a72.45,72.45,0,0,0-7-4c.9-1.53,1.33-2.46,1.33-2.46.48-1.35,1.28-3.88,1.28-3.88a2.26,2.26,0,0,0-1.1-2.33h35.07q0-2.94-3.06-5a12.88,12.88,0,0,0-7.4-2.09,14.13,14.13,0,0,0-5.46,1,9.13,9.13,0,0,0-3.6,2.54H347.55q0,3,3.06,5a12.88,12.88,0,0,0,7.4,2.09,14.13,14.13,0,0,0,5.46-1,9.14,9.14,0,0,0,3.6-2.55h21.24a82.58,82.58,0,0,1-4.8,11.35A70.84,70.84,0,0,1,375,139.83a90.87,90.87,0,0,1-12.7,12.52,71.43,71.43,0,0,1-17.4,10.3l1.8,2.21c31.32-8.93,47.56-25.28,54.86-35.05,6.32,7.4,23.1,26.63,32.56,33.25,0,0,4.09,2.76,7.56-.48h0a12.36,12.36,0,0,0,2.19-3.61A13.28,13.28,0,0,0,443.4,151.9Z"/><circle class="cls-2" cx="355.23" cy="114.31" r="17.22"/><circle class="cls-2" cx="551.93" cy="153.9" r="17.22"/><line class="cls-3" x1="252.93" y1="111.51" x2="338.01" y2="111.51"/><line class="cls-3" x1="569.59" y1="156.62" x2="654.67" y2="156.62"/><rect class="cls-4" x="723.84" y="99.13" width="1.99" height="4.32"/><rect class="cls-4" x="723.84" y="83.54" width="1.99" height="8.8"/><rect class="cls-4" x="723.84" y="96.09" width="1.99" height="2.07"/><rect class="cls-4" x="723.84" y="93.26" width="1.99" height="2.07"/><line class="cls-4" x1="703.96" y1="104.72" x2="706.12" y2="108.46"/><rect class="cls-4" x="704.05" y="104.43" width="1.99" height="4.32" transform="translate(40.88 366.07) rotate(-29.94)"/><line class="cls-4" x1="702.45" y1="102.09" x2="703.48" y2="103.89"/><rect class="cls-4" x="701.97" y="101.95" width="1.99" height="2.07" transform="translate(42.37 364.49) rotate(-29.93)"/><line class="cls-4" x1="701.03" y1="99.64" x2="702.07" y2="101.44"/><rect class="cls-4" x="700.55" y="99.5" width="1.99" height="2.07" transform="translate(43.65 364.07) rotate(-29.99)"/><line class="cls-4" x1="688.68" y1="120" x2="692.42" y2="122.16"/><rect class="cls-4" x="689.56" y="118.92" width="1.99" height="4.32" transform="translate(240.59 658.72) rotate(-60.02)"/><line class="cls-4" x1="675.18" y1="112.21" x2="682.8" y2="116.61"/><rect class="cls-4" x="677.99" y="110.01" width="1.99" height="8.8" transform="translate(240.54 645.33) rotate(-60.01)"/><line class="cls-4" x1="686.05" y1="118.49" x2="687.85" y2="119.52"/><polygon class="cls-4" points="687.35 120.39 685.55 119.35 686.55 117.62 688.35 118.66 687.35 120.39"/><line class="cls-4" x1="683.6" y1="117.07" x2="685.4" y2="118.11"/><polygon class="cls-4" points="684.9 118.97 683.1 117.93 684.1 116.21 685.9 117.24 684.9 118.97"/><line class="cls-4" x1="683.96" y1="140.88" x2="688.28" y2="140.88"/><rect class="cls-4" x="683.96" y="139.88" width="4.32" height="1.99"/><line class="cls-4" x1="680.93" y1="140.88" x2="683" y2="140.88"/><rect class="cls-4" x="680.93" y="139.88" width="2.07" height="1.99"/><line class="cls-4" x1="678.1" y1="140.88" x2="680.17" y2="140.88"/><rect class="cls-4" x="678.1" y="139.88" width="2.07" height="1.99"/><line class="cls-4" x1="765.61" y1="140.88" x2="761.29" y2="140.88"/><rect class="cls-4" x="761.28" y="139.88" width="4.32" height="1.99"/><line class="cls-4" x1="768.64" y1="140.88" x2="766.57" y2="140.88"/><rect class="cls-4" x="766.56" y="139.88" width="2.07" height="1.99"/><line class="cls-4" x1="771.47" y1="140.88" x2="769.39" y2="140.88"/><rect class="cls-4" x="769.4" y="139.88" width="2.07" height="1.99"/><line class="cls-4" x1="761" y1="120" x2="757.26" y2="122.16"/><rect class="cls-4" x="756.97" y="120.08" width="4.32" height="1.99" transform="translate(41 395.37) rotate(-29.97)"/><line class="cls-4" x1="774.49" y1="112.21" x2="766.88" y2="116.61"/><rect class="cls-4" x="766.28" y="113.41" width="8.8" height="1.99" transform="translate(45.88 400.25) rotate(-29.97)"/><line class="cls-4" x1="763.62" y1="118.49" x2="761.83" y2="119.52"/><polygon class="cls-4" points="762.32 120.39 761.33 118.66 763.12 117.62 764.12 119.35 762.32 120.39"/><line class="cls-4" x1="766.07" y1="117.07" x2="764.28" y2="118.11"/><polygon class="cls-4" points="764.77 118.97 763.78 117.24 765.57 116.21 766.57 117.93 764.77 118.97"/><line class="cls-4" x1="745.71" y1="104.72" x2="743.55" y2="108.46"/><polygon class="cls-4" points="744.42 108.96 742.69 107.96 744.85 104.22 746.58 105.22 744.42 108.96"/><line class="cls-4" x1="747.23" y1="102.09" x2="746.19" y2="103.89"/><rect class="cls-4" x="745.67" y="101.99" width="2.07" height="1.99" transform="translate(284.51 698.43) rotate(-60.03)"/><line class="cls-4" x1="748.64" y1="99.64" x2="747.61" y2="101.44"/><rect class="cls-4" x="747.09" y="99.54" width="2.07" height="1.99" transform="translate(287.34 698.43) rotate(-60.03)"/><path class="cls-4" d="M724.84,109A31.85,31.85,0,0,0,693,140.88c0,.34.09.65.1,1h63.5c0-.34.1-.65.1-1A31.85,31.85,0,0,0,724.84,109Z"/><path class="cls-4" d="M195.7,60.13a32,32,0,0,0-31.87,32c0,.35.09.66.1,1h63.55c0-.34.1-.65.1-1A32,32,0,0,0,195.7,60.13Z"/><ellipse class="cls-4" cx="195.7" cy="53.22" rx="1.64" ry="1.65"/><ellipse class="cls-4" cx="229.97" cy="74.4" rx="1.64" ry="1.65"/><ellipse class="cls-4" cx="163.05" cy="72.76" rx="1.64" ry="1.65"/><path class="cls-4" d="M172.9,58.14A8.39,8.39,0,0,1,177.26,61l-4.5-8.26A7.5,7.5,0,0,1,172.9,58.14Z"/><path class="cls-4" d="M172.76,52.72l4.5,8.26a8.48,8.48,0,0,1,0-5.22A7.43,7.43,0,0,1,172.76,52.72Z"/><path class="cls-4" d="M218.37,58.14A8.4,8.4,0,0,0,214,61l4.51-8.26A7.44,7.44,0,0,0,218.37,58.14Z"/><path class="cls-4" d="M218.51,52.72,214,61a8.53,8.53,0,0,0,0-5.22A7.43,7.43,0,0,0,218.51,52.72Z"/><path class="cls-4" d="M235.55,93.51a8.41,8.41,0,0,0-4.67-2.3l9.37-.36A7.38,7.38,0,0,0,235.55,93.51Z"/><path class="cls-4" d="M240.25,90.85l-9.37.36a8.41,8.41,0,0,0,4.48-2.65A7.41,7.41,0,0,0,240.25,90.85Z"/><path class="cls-4" d="M155.4,93.51a8.41,8.41,0,0,0-4.67-2.3l9.37-.36A7.38,7.38,0,0,0,155.4,93.51Z"/><path class="cls-4" d="M160.1,90.85l-9.37.36a8.41,8.41,0,0,0,4.48-2.65A7.41,7.41,0,0,0,160.1,90.85Z"/><text class="cls-5" transform="translate(692.89 170.42)">시간은 신경쓰지 말고<tspan x="0" y="28">내 마음대로 타임슬립 가능 </tspan></text><text class="cls-6" transform="translate(76.68 123.48)">낮에는 밤이 그립고<tspan x="-22.8" y="28">밤에는 낮이 그리울 때</tspan></text></svg>