<svg id="Layer_1" data-name="Layer 1" xmlns="http://www.w3.org/2000/svg" viewBox="0 0 960 85.06"><defs><style>.cls-1{fill:#2a2465;}</style></defs><title>introduce_article03-03</title><path class="cls-1" d="M246.86,15.21A44.68,44.68,0,0,1,238,16h-1.63V7.27h2.77v6.45a42.83,42.83,0,0,0,7.39-.71ZM246.13,20c.31,1.51,2.18,3.08,5.79,3.54l-1,2.08c-3-.4-5.16-1.64-6.25-3.25-1.1,1.61-3.22,2.81-6.28,3.23l-1-2.1c3.63-.42,5.46-1.95,5.75-3.5h-5V17.77h13V20Zm7.26-9.39v2.29h-2.56V17h-2.77V6.35h2.77v4.22Z"/><path class="cls-1" d="M264.12,16.49h-9.25V7.4h2.72V9.79h3.81V7.4h2.72Zm-7.18,1.83h12.58v7.16H256.94Zm4.46-6.41h-3.81v2.42h3.81Zm-1.73,11.4h7.14V20.5h-7.14Zm12.41-10.39h-2.56v4.5h-2.77v-11h2.77v4.28h2.56Z"/><path class="cls-1" d="M273.07,19.58A86.79,86.79,0,0,0,285.29,19l.17,2a62.3,62.3,0,0,1-12,.88Zm11.47-7.16c0,2.79-2.31,4.76-5.34,4.76s-5.31-2-5.31-4.76,2.29-4.77,5.31-4.77S284.54,9.65,284.54,12.42Zm-8,0A2.64,2.64,0,1,0,279.2,10,2.37,2.37,0,0,0,276.58,12.42Zm12.53-6.07v19.4h-2.77V6.35Z"/><path class="cls-1" d="M314.44,21.11v2.25H296.93V21.11Zm-1.79-3.32a9.8,9.8,0,0,1-7.07-5,9.72,9.72,0,0,1-7.06,5l-1.17-2.33c4.34-.73,6.76-3.8,6.76-6.57V7.51h3V8.89c0,2.83,2.39,5.84,6.76,6.57Z"/><path class="cls-1" d="M333.13,21.34v2.25H315.62V21.34H323V18.13h-5.31V7.69h13.43V9.9H320.49v1.89h10.18v2.14H320.49v2h10.77v2.19h-5.5v3.21Z"/><path class="cls-1" d="M338.17,19a48.55,48.55,0,0,0,8.11-.63l.29,2.25a53.56,53.56,0,0,1-9.49.67h-1.74v-8h6.27V10.21h-6.29V8h9.13v7.47h-6.28ZM350.39,6.35v19.4h-2.77V6.35Z"/><path class="cls-1" d="M370.51,15.78V18H353V15.78Zm-12.75,7.3h10.92v2.21H355V19.54h2.79Zm10.82-9.28H355.16V7.06h2.77V11.6h10.65Z"/><path class="cls-1" d="M387.08,18.23v1.26h5.33v6H379.14v-6h5.17V18.23h-7.37V16.05h17.51v2.18Zm2.5-9.4h-10.5V6.73h13.23v5.14H381.85V13h10.83v2.08H379.12V9.92h10.46Zm.12,12.85h-7.83v1.63h7.83Z"/><path class="cls-1" d="M401.47,8.2h9.23V21h-9.23Zm2.73,10.62H408V10.38H404.2Zm14.63-2.88H416v9.77h-2.77V6.39H416v7.27h2.81Z"/><path class="cls-1" d="M423.07,18.8a47.77,47.77,0,0,0,7.54-.61l.27,2.29a47.61,47.61,0,0,1-8.92.63h-1.64V8.16h9V10.4h-6.26Zm14.45-3h-2.81v10h-2.78V6.37h2.78v7.14h2.81Z"/><path class="cls-1" d="M451,10.68c0,3.58,1.54,7.11,4.81,8.52l-1.57,2.25a8.83,8.83,0,0,1-4.58-5.29,9.37,9.37,0,0,1-4.74,5.75l-1.66-2.29c3.38-1.45,5-5.19,5-8.94V7.86H451Zm8.53-4.33v19.4h-2.77V6.35Z"/><path class="cls-1" d="M472.19,7.82c0,5.25-3.23,8.88-9,10.54l-1.16-2.2c4.3-1.18,6.7-3.43,7.14-6.14h-6.3V7.82ZM467.7,23.17h10.37v2.2H464.93V18.82h2.77ZM480,11.77V14H477.4v6.18h-2.77V6.37h2.77v5.4Z"/><path class="cls-1" d="M498.36,14.16v2.16H480.89V14.16ZM482.63,9.94c0-2.12,2.58-3.3,7-3.3s7,1.18,7,3.3-2.59,3.3-7,3.3S482.63,12.08,482.63,9.94Zm3,13.54h11.09v2.08H482.9V20.48h10.61v-1H482.88v-2h13.36v5H485.65Zm-.14-13.54c0,.9,1.32,1.28,4.11,1.28s4.14-.38,4.14-1.28-1.32-1.26-4.14-1.26S485.51,9.08,485.51,9.94Z"/><path class="cls-1" d="M515,16a7,7,0,0,1-4.28-3.55,7.38,7.38,0,0,1-4.58,3.92l-1.43-2.16a5.88,5.88,0,0,0,4.56-5.79V7H512V8.39a5.6,5.6,0,0,0,4.35,5.45Zm6.57,7.37v2.14H508.27V20.21h10V19.14h-10V17H521V22.2H511v1.14Zm-3.32-11.93H514.7V9.21h3.52V6.37H521V16.2h-2.78Z"/><path class="cls-1" d="M533.83,17.35a7.31,7.31,0,0,1-4.39-3.76,7.55,7.55,0,0,1-4.62,4.29l-1.41-2.19A6.42,6.42,0,0,0,528,9.75h-3.8V7.53h10.39V9.75H530.8a5.94,5.94,0,0,0,4.37,5.44ZM539.77,22c0,2.35-2.52,3.72-6.61,3.72s-6.64-1.37-6.64-3.72,2.52-3.71,6.64-3.71S539.77,19.66,539.77,22ZM537,22c0-1.09-1.33-1.61-3.84-1.61s-3.87.52-3.87,1.61,1.32,1.62,3.87,1.62S537,23.1,537,22Zm-.09-11V6.37h2.77V17.88h-2.77v-4.6H534V11Z"/><path class="cls-1" d="M549.16,9.23h4.2v2.2H542.1V9.23h4.29V6.71h2.77Zm3.5,7.89a4.9,4.9,0,1,1-4.87-4.6A4.6,4.6,0,0,1,552.66,17.12Zm-2.62,0a2.26,2.26,0,1,0-4.52,0,2.26,2.26,0,1,0,4.52,0Zm10.12-.9h-2.77v9.49h-2.77V6.37h2.77v7.56h2.77Z"/><path class="cls-1" d="M577.13,6.35v19.4h-2.77V18.57h-4a4.53,4.53,0,0,1-4.22,3c-2.88,0-5-2.67-5-6.93s2.12-6.89,5-6.89a4.48,4.48,0,0,1,4,2.61h4.12v-4Zm-8.55,8.25c0-2.85-1-4.39-2.39-4.39s-2.37,1.54-2.37,4.39,1,4.41,2.37,4.41S568.58,17.48,568.58,14.6Zm5.78,1.72V12.54H571a11.1,11.1,0,0,1,.19,2.06,11.46,11.46,0,0,1-.13,1.72Z"/><path class="cls-1" d="M595.15,17.42a7.15,7.15,0,0,1-4.54-3.28,7.16,7.16,0,0,1-4.6,3.78l-1.32-2.16c3.09-.89,4.43-3,4.47-5.21h-3.78V8.39h3.78V6.31h2.77V8.39h3.82v2.16h-3.82c.05,1.95,1.39,3.93,4.48,4.72Zm5.12,4.63c0,2.31-2.5,3.66-6.53,3.66s-6.55-1.35-6.55-3.66,2.5-3.67,6.55-3.67S600.27,19.75,600.27,22.05Zm-2.75,0c0-1-1.3-1.53-3.78-1.53s-3.8.49-3.8,1.53,1.3,1.54,3.8,1.54S597.52,23.1,597.52,22.05Zm5.1-11.14v2.26h-2.56V18h-2.77V6.37h2.77v4.54Z"/><path class="cls-1" d="M621,15.92v2.19H613.9V21.4h-2.77V18.11h-7.62V15.92Zm-12.7,7.25h10.77v2.2H605.54v-5.6h2.78Zm10.47-8.78H605.67V7.19h13.12Zm-2.73-5H608.4v2.86h7.66Z"/><path class="cls-1" d="M634.69,12.4a8,8,0,0,0,4.6,7.3l-1.47,2.12a8.62,8.62,0,0,1-4.47-4.93,8.78,8.78,0,0,1-4.52,5.25L627.36,20a8.35,8.35,0,0,0,4.56-7.62v-.68H628V9.52h3.91V6.83h2.77V9.52h3.84v2.2h-3.84Zm9-6V25.75h-2.77V16H637.5V13.76h3.43V6.37Z"/><path class="cls-1" d="M657.14,16.76a53.76,53.76,0,0,1-8.65.47h-1.6V11.16h6V9.5h-6V7.29h8.71v5.9h-5.94V15a45.66,45.66,0,0,0,7.31-.46Zm-7.77,1.81h13v6.91h-13Zm2.73,4.74h7.49V20.73H652.1ZM662.33,6.37V17.75h-2.78V12.56h-3v-2.2h3v-4Z"/><path class="cls-1" d="M687.61,21.22v2.24H670.1V21.22h7.35V17.67h-5.51V7.57h2.76v3H683v-3h2.73v10.1h-5.48v3.55ZM674.7,15.46H683V12.75H674.7Z"/><path class="cls-1" d="M699.5,14.6c0,4.26-2.17,6.93-5.08,6.93s-5.09-2.67-5.09-6.93,2.17-6.89,5.09-6.89S699.5,10.36,699.5,14.6Zm-7.5,0c0,2.88,1,4.41,2.42,4.41s2.41-1.53,2.41-4.41-1-4.39-2.41-4.39S692,11.75,692,14.6Zm12.81-8.25v19.4H702V6.35Z"/><path class="cls-1" d="M725,15.78V18H707.48V15.78Zm-12.75,7.3h10.92v2.21H709.45V19.54h2.79Zm10.82-9.28H709.64V7.06h2.77V11.6h10.65Z"/><path class="cls-1" d="M168.24,49.51v1.43H151.17V49.51Zm-1.62-4a10.24,10.24,0,0,1-7-5.44,10.36,10.36,0,0,1-7,5.44l-.78-1.43c3.3-.65,6.85-3.48,6.85-6.7V36h1.8v1.44c0,3.22,3.57,6.07,6.87,6.7Z"/><path class="cls-1" d="M186.91,49.43v1.4h-17v-1.4Zm-3.83-7.67c0-1,0-1.95,0-2.92v-.9H171.89V36.53h12.92v2.31A39.16,39.16,0,0,1,184,48l-1.7-.17a29.84,29.84,0,0,0,.73-4.81l-11.36.63-.25-1.43Z"/><path class="cls-1" d="M200.18,45.2a50.63,50.63,0,0,1-9.13.64h-1.52V40.1h6.81V37.35h-6.87V36H198V41.4h-6.83v3a48.24,48.24,0,0,0,8.8-.63Zm4.32,6.43V53H191.7V47.43h1.72v4.2ZM204,48.5h-1.72V34.64H204Z"/><path class="cls-1" d="M217.86,35h1.64V52.53h-1.64V43.36h-2.37c-.15,3.69-1.68,6-4,6-2.46,0-4-2.52-4-6.59s1.57-6.53,4-6.53c2.27,0,3.78,2.2,4,5.75h2.37Zm-3.92,7.69c0-3-1-4.94-2.44-4.94S209,39.7,209,42.73s1,5,2.46,5S213.94,45.81,213.94,42.73Zm9.3-8.11V53.46H221.6V34.62Z"/><path class="cls-1" d="M237.85,39.64a9.38,9.38,0,0,0,5,8.17l-1,1.38a10.25,10.25,0,0,1-4.85-6,10.42,10.42,0,0,1-4.87,6.32l-1-1.41a9.89,9.89,0,0,0,5.06-8.5V36.26h1.7Zm8.74-5V53.5h-1.72V34.62Z"/><path class="cls-1" d="M259.44,36.09c0,4.87-3.42,8.44-8.84,10.14l-.69-1.36c4.43-1.39,7.33-4,7.68-7.37h-6.92V36.09Zm-5,15.54H265.3V53H252.74V47h1.73Zm12.78-11.28v1.43h-2.77V48.4h-1.72V34.64h1.72v5.71Z"/><path class="cls-1" d="M276.18,47.39a29.6,29.6,0,0,0,6.36-.57l.15,1.43a31.11,31.11,0,0,1-7,.57h-1.24V36.91h7v1.41h-5.31Zm13.63-12.77V53.46h-1.66V43.59h-2.67v8.92h-1.62V35h1.62v7.14h2.67V34.62Z"/><path class="cls-1" d="M303.12,35h1.64V52.53h-1.64V43.36h-2.37c-.15,3.69-1.68,6-4,6s-4-2.52-4-6.59,1.57-6.53,4-6.53c2.27,0,3.78,2.2,4,5.75h2.37Zm-3.92,7.69c0-3-1-4.94-2.44-4.94s-2.46,1.91-2.46,4.94.95,5,2.46,5S299.2,45.81,299.2,42.73Zm9.3-8.11V53.46h-1.64V34.62Z"/><path class="cls-1" d="M318.7,47.07a18.06,18.06,0,0,0,3.24-.37l.19,1.42a19.15,19.15,0,0,1-4.29.4H317V36.6h4.75V38H318.7Zm5.8,0a16.07,16.07,0,0,0,3.88-.44l.17,1.43a18.31,18.31,0,0,1-4.83.44h-.92V36.6h5V38h-3.3Zm9.43-3.63h-2.71v10H329.5V34.6h1.72V42h2.71Z"/><path class="cls-1" d="M352.2,45.06v1.4H335.11v-1.4Zm-3.89-8.46h-11V35.25H350v4.68H339V42h11.4v1.35h-13.1V38.65h11Zm-9.23,15h11.33V53H337.35V47.91h1.73Z"/><path class="cls-1" d="M368,43.08a4.88,4.88,0,0,1-3.8,1.62,4.52,4.52,0,0,1-4.85-4.49c0-2.63,2.06-4.45,4.85-4.45a5,5,0,0,1,3.8,1.57h4.83V34.62h1.74V45.77h-1.74V43.08Zm-3.8.15a3,3,0,1,0-3.21-3A3,3,0,0,0,364.21,43.23Zm10.44,6.59c0,2.29-2.42,3.61-6.3,3.61s-6.26-1.32-6.26-3.61,2.39-3.61,6.26-3.61S374.65,47.54,374.65,49.82Zm-1.7,0c0-1.42-1.73-2.26-4.6-2.26s-4.56.84-4.56,2.26,1.72,2.25,4.56,2.25S373,51.23,373,49.82Zm-4.14-11.08a4.49,4.49,0,0,1,.23,1.47,4.2,4.2,0,0,1-.25,1.47h4V38.74Z"/><path class="cls-1" d="M387.73,44.83a7.91,7.91,0,0,1-4.49-4.24,7.89,7.89,0,0,1-4.66,4.76L377.67,44a6.89,6.89,0,0,0,4.69-6.47V35.59h1.72v2.08a6.37,6.37,0,0,0,4.55,5.81ZM392.58,50c0,2.19-2.37,3.42-6.19,3.42s-6.22-1.23-6.22-3.42,2.37-3.44,6.22-3.44S392.58,47.81,392.58,50Zm-1.72,0c0-1.32-1.7-2.1-4.47-2.1s-4.5.78-4.5,2.1,1.7,2.08,4.5,2.08S390.86,51.31,390.86,50Zm4.3-10.52v1.43h-2.79V46h-1.72V34.64h1.72v4.85Z"/><path class="cls-1" d="M413.47,42.75v1.38h-17V42.75Zm-15.13-4.54c0-2.12,2.47-3.27,6.61-3.27s6.61,1.15,6.61,3.27-2.47,3.26-6.61,3.26S398.34,40.33,398.34,38.21Zm1.89,13.69h11.63v1.35H398.55V48.73h11V47.05H398.48v-1.3h12.81V50H400.23Zm-.13-13.69c0,1.26,1.76,2,4.85,2s4.85-.72,4.85-2-1.76-2-4.85-2S400.1,37,400.1,38.21Z"/><path class="cls-1" d="M426,39.72c0,3.45,1.37,6.49,4,7.88l-1,1.32a8.47,8.47,0,0,1-3.82-5.08,8.79,8.79,0,0,1-3.9,5.73l-1.05-1.3c2.69-1.51,4.09-4.72,4.09-8.55V38.26h-3.65V36.85h8.73v1.41H426Zm10.5-5.12V53.46h-1.66V43.65h-2.48v8.88H430.7V35h1.61v7.18h2.48V34.6Z"/><path class="cls-1" d="M447.58,44.78a6.76,6.76,0,0,1-3.72-3.65A7.45,7.45,0,0,1,440,45.31L439.1,44A6.54,6.54,0,0,0,443,38.34V35.8h1.66v2.54a5.66,5.66,0,0,0,3.82,5.12Zm7.47,5.27c0,2.15-2.41,3.38-6.29,3.38s-6.28-1.23-6.28-3.38,2.41-3.37,6.28-3.37S455.05,47.91,455.05,50.05Zm-1.7,0c0-1.3-1.74-2-4.59-2s-4.58.73-4.58,2,1.76,2.06,4.58,2.06S453.35,51.36,453.35,50.05Zm-2.43-4.4h-1.64V35h1.64v4.68h2.39v-5H455V46.26h-1.66V41.09h-2.39Z"/><path class="cls-1" d="M464.13,37.65h4.64V39H457.66V37.65h4.75v-2.8h1.72Zm3.76,7.28a4.59,4.59,0,1,1-4.6-4.34A4.28,4.28,0,0,1,467.89,44.93Zm-1.64,0a3,3,0,1,0-3,2.9A2.84,2.84,0,0,0,466.25,44.93Zm9.11-1.11h-3.08v9.64h-1.73V34.64h1.73v7.73h3.08Z"/><path class="cls-1" d="M492,34.62V53.5h-1.72V46.19h-4.7a4.38,4.38,0,0,1-4.05,3c-2.75,0-4.71-2.57-4.71-6.58s2-6.57,4.71-6.57a4.25,4.25,0,0,1,3.92,2.77h4.83V34.62Zm-7.41,8c0-3-1.28-5-3.06-5s-3.07,2-3.07,5,1.26,5,3.07,5S484.56,45.71,484.56,42.64Zm5.69,2.14V40.25h-4.34a11.13,11.13,0,0,1,.27,2.39,11.67,11.67,0,0,1-.21,2.14Z"/><path class="cls-1" d="M507.07,39.64a9.38,9.38,0,0,0,5,8.17l-1,1.38a10.25,10.25,0,0,1-4.85-6,10.42,10.42,0,0,1-4.87,6.32l-1.05-1.41a9.89,9.89,0,0,0,5.06-8.5V36.26h1.7Zm8.74-5V53.5h-1.72V34.62Z"/><path class="cls-1" d="M528.66,36.09c0,4.87-3.42,8.44-8.84,10.14l-.69-1.36c4.43-1.39,7.33-4,7.68-7.37h-6.93V36.09Zm-5,15.54h10.84V53H522V47h1.72Zm12.79-11.28v1.43H533.7V48.4H532V34.64h1.72v5.71Z"/><path class="cls-1" d="M548.4,35H550V52.53H548.4V43.36H546c-.15,3.69-1.68,6-4,6s-4-2.52-4-6.59,1.57-6.53,4-6.53c2.27,0,3.78,2.2,4,5.75h2.37Zm-3.93,7.69c0-3-1-4.94-2.43-4.94s-2.46,1.91-2.46,4.94.95,5,2.46,5S544.47,45.81,544.47,42.73Zm9.31-8.11V53.46h-1.64V34.62Z"/><path class="cls-1" d="M564,47.07a18.06,18.06,0,0,0,3.24-.37l.19,1.42a19.15,19.15,0,0,1-4.29.4h-.84V36.6H567V38h-3Zm5.8,0a16.07,16.07,0,0,0,3.88-.44l.17,1.43a18.31,18.31,0,0,1-4.83.44h-.92V36.6h5V38h-3.3Zm9.43-3.63H576.5v10h-1.72V34.6h1.72V42h2.71Z"/><path class="cls-1" d="M582.86,47.49a42.29,42.29,0,0,0,8.67-.67l.19,1.43a48.43,48.43,0,0,1-9.05.67h-1.49v-7.2h6.76V37.77h-6.82v-1.4h8.53v6.76h-6.79ZM598,43.55h-3.08v9.93h-1.73V34.6h1.73v7.5H598Z"/><path class="cls-1" d="M612.18,36.22h1.68v12.7H605.1V36.22h1.7v5h5.38Zm0,6.34H606.8v4.95h5.38Zm9.76.92h-3.11v10h-1.72V34.64h1.72V42h3.11Z"/><path class="cls-1" d="M635.74,44.32c-1.79.28-3.67.42-5.5.53v7.64h-1.7V44.91c-1.91.09-3.76.13-5.44.13l-.23-1.45c1.11,0,2.35,0,3.59,0a22.6,22.6,0,0,0,.75-6h-3.1v-1.4h4.76v1a25.67,25.67,0,0,1-.67,6.31c1.28,0,2.58-.08,3.87-.16a23,23,0,0,0,.67-5.78H629.8v-1.4h4.62v1.15a24.65,24.65,0,0,1-.59,5.9l1.78-.19Zm2.85-9.7V53.46h-1.72V34.62Z"/><path class="cls-1" d="M658.77,44.22V45.6H641.71V44.22Zm-13.16,7.37h11.32V53h-13v-5.5h1.72Zm11.21-9.89H644V35.32h1.73v5h11.08Z"/><path class="cls-1" d="M675.37,36.13c0,4.9-2.46,8.55-8.51,10.57l-.71-1.39c3.17-1,5.21-2.5,6.34-4.3l-6.13.46L666,40.06l7.08-.31a8.43,8.43,0,0,0,.46-2.21H667V36.13Zm6.36,15.5V53H669.34V47.22h1.72v4.41Zm-2.29-11v-6h1.74v14h-1.74V42h-4.11v-1.4Z"/><path class="cls-1" d="M692.71,44.43a6.88,6.88,0,0,1-3.63-3.74,7.31,7.31,0,0,1-3.78,4.14l-.92-1.33a6.45,6.45,0,0,0,3.88-5.6V35.59h1.66v2.29a5.75,5.75,0,0,0,3.72,5.22Zm5.84,1.45h1.7V53.2H687.88V45.88h1.72v2.18h8.95Zm0,3.55H689.6v2.39h8.95ZM694.92,40H692V38.55h2.94V35h1.61V45h-1.61Zm5.33-5.34V45.1h-1.66V34.64Z"/><path class="cls-1" d="M713.67,35h1.64V52.53h-1.64V43.36H711.3c-.15,3.69-1.68,6-4,6s-4-2.52-4-6.59,1.57-6.53,4-6.53c2.27,0,3.78,2.2,4,5.75h2.37Zm-3.93,7.69c0-3-1-4.94-2.43-4.94s-2.46,1.91-2.46,4.94.95,5,2.46,5S709.74,45.81,709.74,42.73Zm9.31-8.11V53.46h-1.64V34.62Z"/><path class="cls-1" d="M727.43,40.12c0-2.6,2.05-4.38,4.89-4.38s4.93,1.78,4.93,4.38-2.08,4.39-4.93,4.39S727.43,42.73,727.43,40.12Zm12.91,7.1a5.13,5.13,0,0,0,3.78,4.68l-.86,1.3a6.27,6.27,0,0,1-3.78-3.54A6.52,6.52,0,0,1,736,53.37a6,6,0,0,1-3.5-3.65,6.62,6.62,0,0,1-3.72,3.48l-.86-1.3a5.34,5.34,0,0,0,3.78-4.68v-1h1.66v1a5.23,5.23,0,0,0,2.6,4.47,5.54,5.54,0,0,0,2.71-4.47v-1h1.68Zm-11.23-7.1a3,3,0,0,0,3.21,3,3,3,0,1,0-3.21-3Zm13.33,5.27h-1.72V34.64h1.72Z"/><path class="cls-1" d="M762.7,43.21V44.6h-17V43.21Zm-1.59-1.32c-2.92-.46-5.71-1.93-6.91-4-1.18,2.1-4,3.57-6.93,4l-.63-1.39c3.38-.42,6.68-2.43,6.68-4.83v-.84h1.76v.84c0,2.33,3.32,4.41,6.66,4.83Zm-2.33,4h1.7v7.3H747.82V45.9h1.7v2.2h9.26Zm0,3.53h-9.26v2.39h9.26Z"/><path class="cls-1" d="M767.26,47.12a44.4,44.4,0,0,0,8.88-.89l.19,1.47a44.15,44.15,0,0,1-9.24.89h-1.55V36.45h1.72Zm12.54-12.5V53.43h-1.72V34.62Z"/><path class="cls-1" d="M785.58,47.33a46.06,46.06,0,0,0,8.48-.63l.19,1.42a44.4,44.4,0,0,1-8.91.68h-1.49V36.43h8.76v1.43h-7Zm15.07-3.85h-3.11v10h-1.72V34.62h1.72v7.44h3.11Z"/><path class="cls-1" d="M802.17,50.73a1.39,1.39,0,1,1,2.77,0,1.39,1.39,0,1,1-2.77,0Z"/><path class="cls-1" d="M108.3,66.32H97.76V64.93h4.5V62.6H104v2.33h4.32Zm-5.2,8.23c-2.5,0-4.26-1.45-4.26-3.61s1.76-3.57,4.26-3.57,4.26,1.43,4.26,3.57S105.6,74.55,103.1,74.55Zm0-1.35a2.27,2.27,0,1,0,0-4.49c-1.56,0-2.63.9-2.63,2.23A2.35,2.35,0,0,0,103.1,73.2Zm10.56,6.43V81H101.12V75.77h1.73v3.86Zm-2.18-12v-5h1.74V77h-1.74V73H108.3V71.59h3.18V69.05H108.3V67.64Z"/><path class="cls-1" d="M127,71.84a8,8,0,0,1-4.74-4.33,8,8,0,0,1-4.79,4.69l-.88-1.35a6.83,6.83,0,0,0,4.79-6.23V63.19h1.72v1.43a6.52,6.52,0,0,0,4.76,5.88Zm5.55,8v1.37H119.71V76.56h10.46V74.68h-10.5V73.33h12.2v4.54H121.41v2Zm-.66-7.49h-1.72V62.64h1.72Z"/><path class="cls-1" d="M140.6,75.81c2.06-.09,4.16-.21,6.07-.44l.11,1.26a76.8,76.8,0,0,1-11.68.71l-.19-1.43c1.2,0,2.59,0,4-.06V70.06h1.7ZM143.21,73a40.3,40.3,0,0,0,.56-6.93h-7.83V64.68h9.51v1a47.18,47.18,0,0,1-.52,7.47Zm9.34-1.08h-3v9.52h-1.72V62.62h1.72V70.5h3Z"/><path class="cls-1" d="M170.84,72.22V73.6H153.77V72.22Zm-13.16,7.37H169V81H156v-5.5h1.72Zm11.21-9.89H156.08V63.32h1.72v5h11.09Z"/><path class="cls-1" d="M180.25,75.33a46,46,0,0,0,8.48-.63l.19,1.42a44.23,44.23,0,0,1-8.9.68h-1.49V64.43h8.76v1.43h-7Zm15.08-3.85h-3.11v10H190.5V62.62h1.72v7.44h3.11Z"/><path class="cls-1" d="M213.49,73.06v1.4H196.4v-1.4Zm-3.88-8.46H198.56V63.25h12.75v4.68h-11V70h11.4v1.35h-13.1V66.65h11Zm-9.24,15h11.34V81H198.65V75.91h1.72Z"/><path class="cls-1" d="M226.66,68.73a8.47,8.47,0,0,0,4.58,7.41l-1,1.35A9.27,9.27,0,0,1,225.82,72a9.6,9.6,0,0,1-4.66,5.81l-1-1.3A8.93,8.93,0,0,0,225,68.73V67.26H220.7V65.88h4.24V63h1.72v2.92h4.18v1.38h-4.18ZM238,71.8h-3.11v9.66h-1.72V62.62h1.72v7.75H238Z"/><path class="cls-1" d="M244.41,72.66c-1.87.08-3.68.1-5.23.1L239,71.34a103.14,103.14,0,0,0,12.13-.55l.15,1.24c-1.66.25-3.4.44-5.1.55v3.71h-1.72Zm-4-6c0-2,1.89-3.27,4.64-3.27s4.64,1.3,4.64,3.27-1.89,3.3-4.64,3.3S240.44,68.67,240.44,66.65Zm14.51,13V81H241.63V75.56h1.73v4.07Zm-12.87-13c0,1.22,1.21,2,3,2s3-.8,3-2-1.22-2-3-2S242.08,65.46,242.08,66.65Zm10.66,7.1V62.62h1.72V77h-1.72V75h-3.82V73.75Z"/><path class="cls-1" d="M274.83,77.53V79H257.72V77.53ZM273.09,69c0,3.15-2.94,5.2-6.84,5.2s-6.85-2-6.85-5.2,2.94-5.21,6.85-5.21S273.09,65.88,273.09,69Zm-12,0c0,2.28,2.25,3.8,5.21,3.8s5.2-1.52,5.2-3.8-2.22-3.8-5.2-3.8S261,66.74,261,69Z"/><path class="cls-1" d="M293.52,77.72v1.41H276.41V77.72h7.67V74.17h-5.53V68.35h11.17V65.42H278.51V64H291.4v5.73H280.25v3h11.59v1.39h-6v3.55Z"/><path class="cls-1" d="M307.05,67.64a9.38,9.38,0,0,0,5,8.17l-1,1.38a10.21,10.21,0,0,1-4.85-6,10.45,10.45,0,0,1-4.87,6.32l-1-1.41a9.89,9.89,0,0,0,5.06-8.5V64.26h1.7Zm8.73-5V81.5h-1.72V62.62Z"/><path class="cls-1" d="M328.64,64.09c0,4.87-3.43,8.44-8.84,10.14l-.7-1.36c4.43-1.39,7.33-4.05,7.69-7.37h-6.93V64.09Zm-5,15.54h10.83V81H321.94V75h1.72Zm12.79-11.28v1.43h-2.78V76.4H332V62.64h1.72v5.71Z"/><path class="cls-1" d="M354.78,70.75v1.38h-17V70.75Zm-15.14-4.54c0-2.12,2.48-3.27,6.62-3.27s6.61,1.15,6.61,3.27-2.48,3.26-6.61,3.26S339.64,68.33,339.64,66.21Zm1.89,13.69h11.63v1.35H339.85V76.73h11V75.05H339.79v-1.3H352.6V78H341.53Zm-.12-13.69c0,1.26,1.76,2,4.85,2s4.85-.72,4.85-2-1.77-2-4.85-2S341.41,65,341.41,66.21Z"/><path class="cls-1" d="M378.78,77.61V79H361.69V77.61h7.69V73.06h1.72v4.55Zm-16.27-5.29c3.25-.54,6.82-3.17,6.82-6.17v-.4H363.1V64.34h14.25v1.41h-6.23v.4c0,3,3.59,5.59,6.87,6.11l-.7,1.39c-2.87-.57-5.86-2.42-7.05-5-1.2,2.6-4.16,4.47-7,5.08Z"/><path class="cls-1" d="M390.63,73.14a7.73,7.73,0,0,1-4.54-4.24,8.15,8.15,0,0,1-4.74,4.79l-.9-1.37a6.94,6.94,0,0,0,4.74-6.27v-.66H381V64h10.06v1.38h-4.14v.66a6.49,6.49,0,0,0,4.58,5.75ZM396,78c0,2.23-2.41,3.51-6.28,3.51s-6.27-1.28-6.27-3.51,2.41-3.51,6.27-3.51S396,75.72,396,78Zm-1.72,0c0-1.36-1.72-2.18-4.56-2.18s-4.55.82-4.55,2.18,1.72,2.16,4.55,2.16S394.24,79.31,394.24,78Zm-.08-10.44V62.64h1.74V73.86h-1.74V68.92h-3.72V67.51Z"/><path class="cls-1" d="M405.43,65.65h4.64V67H399V65.65h4.74v-2.8h1.72Zm3.76,7.28a4.58,4.58,0,1,1-4.6-4.34A4.28,4.28,0,0,1,409.19,72.93Zm-1.64,0a3,3,0,1,0-3,2.9A2.83,2.83,0,0,0,407.55,72.93Zm9.12-1.11h-3.09v9.64h-1.72V62.64h1.72v7.73h3.09Z"/><path class="cls-1" d="M433.28,62.62V81.5h-1.72V74.19h-4.71a4.36,4.36,0,0,1-4.05,3c-2.75,0-4.7-2.57-4.7-6.58s1.95-6.57,4.7-6.57a4.26,4.26,0,0,1,3.93,2.77h4.83V62.62Zm-7.41,8c0-3-1.28-5-3.07-5s-3.06,2-3.06,5,1.26,5,3.06,5S425.87,73.71,425.87,70.64Zm5.69,2.14V68.25h-4.35a10.53,10.53,0,0,1,.27,2.39,10.86,10.86,0,0,1-.21,2.14Z"/><path class="cls-1" d="M444.24,75.51a48,48,0,0,0,8.46-.6l.17,1.38a47.6,47.6,0,0,1-8.88.63h-1.47V64.32h8.78v1.41h-7.06v3.88h6.64V71h-6.64Zm15.06-3.88h-3.11v9.8h-1.72V62.62h1.72v7.56h3.11Z"/><path class="cls-1" d="M470.66,67.85c0,2.6-2.08,4.35-4.93,4.35s-4.9-1.75-4.9-4.35,2.06-4.32,4.9-4.32S470.66,65.29,470.66,67.85Zm-8.15,0a3.25,3.25,0,1,0,3.22-2.9A3,3,0,0,0,462.51,67.85Zm2.9,5.82V76h8.73V73.67h1.7V81.2H463.71V73.67Zm0,6.15h8.73v-2.5h-8.73Zm10.43-17.18v10.1h-1.72V62.64Z"/><path class="cls-1" d="M496.11,70.54v1.38H479.06V70.54Zm-1.53-1.2c-3-.4-5.8-1.72-7-3.76-1.2,2-4,3.36-7,3.76L480,68c3.43-.38,6.72-2.27,6.72-4.58v-.71h1.77v.71c0,2.31,3.27,4.2,6.68,4.58ZM482.86,79.9h11.63v1.35H481.18V76.73h11.05V75H481.12v-1.3h12.81V78H482.86Z"/><path class="cls-1" d="M509.4,72a53.09,53.09,0,0,1-9.13.61h-1.51V67.3h6.8V64.93H498.7V63.55h8.56v5.08h-6.82v2.54a51.25,51.25,0,0,0,8.77-.59Zm2.12,2h1.71V81.2H501V73.92h1.7v2.22h8.79Zm0,3.57h-8.79V79.8h8.79Zm1.71-14.85V73H511.5V62.64Z"/><path class="cls-1" d="M522.82,65.65h4.64V67h-11.1V65.65h4.74v-2.8h1.72Zm3.76,7.28a4.58,4.58,0,1,1-4.6-4.34A4.28,4.28,0,0,1,526.58,72.93Zm-1.64,0a3,3,0,1,0-3,2.9A2.83,2.83,0,0,0,524.94,72.93Zm9.12-1.11H531v9.64h-1.72V62.64H531v7.73h3.09Z"/><path class="cls-1" d="M552.2,72.22V73.6H535.13V72.22ZM539,79.59h11.31V81h-13v-5.5H539Zm11.21-9.89H537.44V63.32h1.72v5h11.09Z"/><path class="cls-1" d="M568.75,64.11c0,4.85-3.21,8.32-8.59,10.06l-.75-1.36c4.45-1.41,7.16-4,7.49-7.29h-6.59V64.11Zm.63,10.48c0,2.71,2.92,4.79,6.24,5.42l-.7,1.34c-2.77-.54-5.29-2-6.4-4.2-1.11,2.21-3.65,3.7-6.47,4.24L561.36,80c3.36-.59,6.3-2.69,6.3-5.44v-.86h1.72Zm3.48-5.25h-4.05V67.93h4.05V62.64h1.75V75.37h-1.75Z"/><path class="cls-1" d="M588.05,70.64c0,4-2,6.58-4.79,6.58s-4.79-2.57-4.79-6.58,2-6.57,4.79-6.57S588.05,66.63,588.05,70.64Zm-7.94,0c0,3.07,1.3,5,3.15,5s3.13-2,3.13-5-1.3-5-3.13-5S580.11,67.6,580.11,70.64Zm13.08-8V81.5h-1.72V62.62Z"/><path class="cls-1" d="M613.37,73a79,79,0,0,1-11.4.67l-.19-1.43c.74,0,1.54,0,2.38,0V65.77h-1.85V64.39h10.06v1.38H610.5V72c.94-.07,1.87-.15,2.75-.25Zm-7,6.61h10.83V81H604.62V75.2h1.72Zm-.5-7.43c1,0,2,0,3-.11V65.77h-3Zm13.27-3.85v1.43h-2.78V76.5h-1.72V62.62h1.72v5.73Z"/><path class="cls-1" d="M623,75.51a48,48,0,0,0,8.46-.6l.17,1.38a47.6,47.6,0,0,1-8.88.63h-1.47V64.32H630v1.41H623v3.88h6.64V71H623ZM638,71.63H634.9v9.8h-1.72V62.62h1.72v7.56H638Z"/><path class="cls-1" d="M645.82,68.38a8.78,8.78,0,0,0,5,7.62l-1,1.38A9.92,9.92,0,0,1,645,71.63a10.55,10.55,0,0,1-4.85,6.21l-1-1.38a9.63,9.63,0,0,0,5-8.08V66h-4.37V64.55h10.52V66h-4.43Zm8.69-5.74V81.46h-1.72V62.64Z"/><path class="cls-1" d="M668,73.16a7.8,7.8,0,0,1-4.56-4.26,8,8,0,0,1-4.72,4.7l-.91-1.36a6.84,6.84,0,0,0,4.75-6.17v-.76h-4.2V63.9h10.06v1.41h-4.14v.76a6.49,6.49,0,0,0,4.58,5.75Zm-7.33,1.77h12.6v6.55h-1.74V76.31H660.71Zm12.6-12.31V73.9h-1.74v-5h-3.68v-1.4h3.68V62.62Z"/><path class="cls-1" d="M691.24,63.82c0,4.79-3.32,8.17-8.86,9.68l-.67-1.37c4.6-1.23,7.35-3.71,7.68-6.9h-6.84V63.82Zm-6.76,10.37h11.86v7H684.48Zm1.7,5.61h8.46V75.58h-8.46Zm13-11.15h-2.8v4.66h-1.72V62.6h1.72v4.62h2.8Z"/><path class="cls-1" d="M710.54,72.89a7.72,7.72,0,0,1-4.47-4.22,8,8,0,0,1-4.77,4.79l-.9-1.41a6.86,6.86,0,0,0,4.77-6.42V63.69h1.72v1.87a6.46,6.46,0,0,0,4.58,6Zm5.46,5c0,2.24-2.41,3.54-6.28,3.54s-6.28-1.3-6.28-3.54,2.42-3.55,6.28-3.55S716,75.62,716,77.89Zm-1.72,0c0-1.39-1.72-2.21-4.56-2.21s-4.55.82-4.55,2.21,1.72,2.18,4.55,2.18S714.28,79.25,714.28,77.89ZM714.19,68H710.1V66.63h4.09v-4h1.75V73.77h-1.75Z"/><path class="cls-1" d="M736.2,77.53V79H719.09V77.53ZM734.46,69c0,3.15-2.94,5.2-6.85,5.2s-6.84-2-6.84-5.2,2.94-5.21,6.84-5.21S734.46,65.88,734.46,69Zm-12.05,0c0,2.28,2.24,3.8,5.2,3.8s5.21-1.52,5.21-3.8-2.22-3.8-5.21-3.8S722.41,66.74,722.41,69Z"/><path class="cls-1" d="M754.89,77.72v1.41H737.78V77.72h7.66V74.17h-5.52V68.35h11.17V65.42H739.88V64h12.89v5.73H741.62v3h11.59v1.39h-6v3.55Z"/><path class="cls-1" d="M767.22,68.4a8.59,8.59,0,0,0,4,7.45l-1,1.28A8.73,8.73,0,0,1,766.42,72a9.15,9.15,0,0,1-3.82,5.58l-1-1.3c2.54-1.49,4-4.77,4-7.85v-.86H762V66.13h3.55V63.32h1.66v2.81h3.53v1.41h-3.55Zm10.58-5.78V81.46h-1.66V71.65h-2.47v8.88h-1.62V63h1.62v7.18h2.47v-7.6Z"/><path class="cls-1" d="M792.86,73.2a48.3,48.3,0,0,1-5.58.61v7.08h-1.73v-7c-1.78.06-3.48.08-5,.08l-.21-1.45a91.23,91.23,0,0,0,12.39-.61Zm-11.09-5.94c0-2.2,1.94-3.69,4.73-3.69s4.72,1.49,4.72,3.69S789.29,71,786.5,71,781.77,69.49,781.77,67.26Zm1.62,0c0,1.45,1.28,2.4,3.11,2.4s3.11-1,3.11-2.4-1.28-2.37-3.11-2.37S783.39,65.86,783.39,67.26Zm12.52-4.62V81.48h-1.73V76.84h-4.26V75.49h4.26V62.64Z"/><path class="cls-1" d="M816.15,71.13v1.38h-7.64v2.63h-1.75V72.51H799.1V71.13ZM800,68.61c3.28-.34,6.26-1.91,6.47-3.93h-5.84V63.29h14v1.39h-5.84c.21,2,3.19,3.59,6.44,3.93l-.6,1.34c-3.11-.36-5.93-1.72-7-3.76-1,2.06-3.87,3.4-7,3.76ZM812.24,74h1.7V81.2H801.26V74H803v2.19h9.28Zm0,3.53H803v2.31h9.28Z"/><path class="cls-1" d="M820.71,75.12a44.55,44.55,0,0,0,8.88-.89l.19,1.47a44.28,44.28,0,0,1-9.24.89H819V64.45h1.72Zm12.53-12.5V81.43h-1.72V62.62Z"/><path class="cls-1" d="M839,75.33a46,46,0,0,0,8.48-.63l.19,1.42a44.23,44.23,0,0,1-8.9.68H837.3V64.43h8.75v1.43h-7Zm15.07-3.85H851v10h-1.72V62.62H851v7.44h3.1Z"/><path class="cls-1" d="M855.61,78.73a1.39,1.39,0,1,1,2.77,0,1.39,1.39,0,1,1-2.77,0Z"/></svg>