<svg id="Layer_1" data-name="Layer 1" xmlns="http://www.w3.org/2000/svg" xmlns:xlink="http://www.w3.org/1999/xlink" viewBox="0 0 960 1144.01"><defs><style>.cls-1{fill:none;}.cls-2{opacity:0.07;}.cls-3{clip-path:url(#clip-path);}.cls-4{fill:#fff;opacity:0.33;}.cls-5{fill:#ffe35c;}</style><clipPath id="clip-path"><circle class="cls-1" cx="267.84" cy="1741.07" r="354.33"/></clipPath></defs><title>introduce_article06-07</title><g class="cls-2"><g class="cls-3"><path class="cls-4" d="M581.4,1313.21c-65.59-103.6-181.14-172.42-312.84-172.42-202.51,0-366.94,162.64-370,364.42h-.15V2212.5h2.35L583.1,1316C582.52,1315.08,582,1314.13,581.4,1313.21Z"/><path class="cls-5" d="M675.06,2257h-813V1491.27h.19c2-105.18,45-203.73,121-277.67,76.5-74.37,177.81-115.33,285.28-115.33,140,0,268.44,69.77,343.5,186.64a395.75,395.75,0,0,1,62.8,206.36h.19Zm-809.95-3H672V1494.11l-.16-1.3a392.74,392.74,0,0,0-62.35-206.26c-74.49-116-201.95-185.24-340.94-185.24-106.67,0-207.23,40.65-283.16,114.46s-118.51,172.11-120.14,277l-.16,6.19Z"/><path class="cls-5" d="M639,2215H-104.47V1504.7h.18a371.63,371.63,0,0,1,371.53-364.42c128.06,0,245.48,64.72,314.12,173.13a370.91,370.91,0,0,1,57.42,191.29H639Zm-740.38-3H635.92l-.15-705.75a367.83,367.83,0,0,0-57-191.22c-68.07-107.52-184.54-171.71-311.55-171.71a368.58,368.58,0,0,0-368.52,362.93l-.15,5.74Z"/></g></g><image width="6000" height="7695" transform="translate(41.74 11.26) scale(0.15 0.15)" xlink:href="../%EB%82%AE%EB%B0%A4/%EC%A1%B8%EC%9E%91%20%EB%AA%A9%EC%97%85/5.jpg"/></svg>