<svg id="Layer_1" data-name="Layer 1" xmlns="http://www.w3.org/2000/svg" viewBox="0 0 960 233.12"><defs><style>.cls-1{fill:#2a2465;}.cls-2,.cls-3{fill:none;stroke:#ffe35c;stroke-miterlimit:10;stroke-width:3.27px;}.cls-2{stroke-dasharray:6.49 6.49;}.cls-4{fill:#ffe35c;}</style></defs><title>introduce_article01-11</title><path class="cls-1" d="M727.73,166.5a9.42,9.42,0,0,0,5.06,8.21l-1,1.4a10.34,10.34,0,0,1-4.88-6,10.54,10.54,0,0,1-4.9,6.36l-1.05-1.42A10,10,0,0,0,726,166.5v-3.4h1.72Zm8.78-5.05v19h-1.73v-19Z"/><path class="cls-1" d="M750.07,162.93c0,4.9-3.44,8.49-8.89,10.2l-.7-1.37c4.46-1.4,7.37-4.08,7.73-7.41h-7v-1.42Zm-5,15.63H756V180H743.33v-6.08h1.74Zm12.86-11.34v1.43h-2.79v6.66h-1.73V161.47h1.73v5.75Z"/><path class="cls-1" d="M777,171.42v1.39H759.85v-1.39Zm-15.21-5.53c0-2.37,2.6-3.78,6.66-3.78s6.65,1.41,6.65,3.78-2.6,3.76-6.65,3.76S761.77,168.25,761.77,165.89Zm2,12.67h11.3V180h-13v-5.49h1.73Zm-.25-12.67c0,1.5,1.9,2.36,4.88,2.36s4.87-.86,4.87-2.36-1.9-2.39-4.87-2.39S763.55,164.39,763.55,165.89Z"/><path class="cls-1" d="M795.71,172.27a8.18,8.18,0,0,1-4.66-4.69,8.55,8.55,0,0,1-4.73,5.07l-.91-1.42a7.38,7.38,0,0,0,4.75-6.8v-1.92h1.73v1.92a7,7,0,0,0,4.73,6.46Zm5.62,6.29V180H788.58v-5.91h1.73v4.5Zm-.57-3.21H799v-13.9h1.73Z"/><path class="cls-1" d="M813.77,166.35c-1.22,3-4.09,5.26-8.17,6.44l-.7-1.37c4.52-1.35,7.33-3.86,7.65-7.14h-6.68v-1.39h8.56a11.49,11.49,0,0,1-.21,2.05h4.28v-3.47h1.76v11.32H818.5V170.3h-5v-1.41h5v-2.54Zm6.57,10.31c0,2.28-2.45,3.65-6.27,3.65s-6.27-1.37-6.27-3.65,2.45-3.66,6.27-3.66S820.34,174.38,820.34,176.66Zm-1.71,0c0-1.42-1.77-2.28-4.56-2.28s-4.56.86-4.56,2.28,1.77,2.3,4.56,2.3S818.63,178.09,818.63,176.66Z"/><path class="cls-1" d="M841.25,176.45v1.43H824.08v-1.43Zm-1.16-4a7.12,7.12,0,0,1-3.72-4.16,7.2,7.2,0,0,1-3.74,4.37,7.32,7.32,0,0,1-3.73-4.48,7.58,7.58,0,0,1-3.72,4.27l-.93-1.33a6.62,6.62,0,0,0,3.8-5.75V163h1.71v2.41a7,7,0,0,0,2.9,5.45,6.83,6.83,0,0,0,2.83-5.45V163h1.75v2.41a6.25,6.25,0,0,0,3.8,5.75Z"/><path class="cls-1" d="M850.27,167.24a8.83,8.83,0,0,0,5.07,7.67l-1,1.39a10,10,0,0,1-5-5.79,10.57,10.57,0,0,1-4.87,6.25l-1-1.39a9.69,9.69,0,0,0,5-8.13v-2.41h-4.39V163.4h10.58v1.43h-4.46Zm8.74-5.77V180.4h-1.73V161.47Z"/><path class="cls-1" d="M878.34,170.11h-8.7v-7.58h8.7Zm-1.69-6.21h-5.32v4.84h5.32Zm-3.38,14.85h11v1.39H871.58v-4.79h10.27v-2H871.52V172h12v4.65H873.27Zm13.09-13.22V167h-2.8v4.14h-1.74v-9.63h1.74v4.06Z"/><path class="cls-1" d="M905.44,176.32v1.41H888.31v-1.41H895v-6.78h1.73v6.78Zm-3.78-11.55H890.11v-1.42h13.28v1.88a42.65,42.65,0,0,1-.72,8.77l-1.73-.19a40.42,40.42,0,0,0,.72-8.58Z"/><path class="cls-1" d="M723.67,199.32a33.08,33.08,0,0,0,6.08-.59l.17,1.5a35.46,35.46,0,0,1-6.78.59h-1.2V189.1h1.73Zm13.41-12.52v18.92h-1.67v-9.78h-2.68v8.83H731.1V187.22h1.63v7.29h2.68V186.8Z"/><path class="cls-1" d="M747.12,188.7h8.67v12.23h-8.67Zm1.69,10.83h5.3v-9.44h-5.3Zm15.24-3.71h-3.12v9.92H759.2V186.82h1.73v7.54h3.12Z"/><path class="cls-1" d="M782.91,196v1.39H765.79V196Zm-1.92-5.2c0,2.24-2.55,3.57-6.65,3.57s-6.65-1.33-6.65-3.57,2.55-3.59,6.65-3.59S781,188.55,781,190.81Zm-.17,8.45v6.23H767.9v-6.23Zm-11.36-8.45c0,1.4,1.88,2.22,4.88,2.22s4.88-.82,4.88-2.22-1.88-2.22-4.88-2.22S769.46,189.42,769.46,190.81Zm.13,9.82v3.46h9.54v-3.46Z"/><path class="cls-1" d="M787.6,199.64a29.93,29.93,0,0,0,6.4-.57l.15,1.43a30.85,30.85,0,0,1-7,.57h-1.25v-12H793v1.42H787.6Zm13.71-12.84v18.94h-1.67v-9.92H797v9h-1.63V187.22H797v7.18h2.68v-7.6Z"/><path class="cls-1" d="M821.84,202v1.42H804.63V202h7.71v-3.57h-5.56v-5.85H818v-2.95H806.74v-1.42h13V194H808.49V197h11.66v1.39h-6.06V202Z"/><path class="cls-1" d="M832.55,199.76a47.61,47.61,0,0,0,8.51-.61l.17,1.4a49,49,0,0,1-8.93.63h-1.48V188.51h8.83v1.41h-7.1v3.91h6.67v1.39h-6.67Zm15.14-3.9h-3.12v9.86h-1.74V186.8h1.74v7.6h3.12Z"/><path class="cls-1" d="M859.75,192.23c0,2.61-2.09,4.41-5,4.41s-4.92-1.8-4.92-4.41,2.07-4.42,4.92-4.42S859.75,189.61,859.75,192.23Zm-8.19,0a3.26,3.26,0,0,0,6.5,0,3.26,3.26,0,0,0-6.5,0ZM865,198.67v6.82H852.72v-6.82ZM854.41,200v4.05h8.87V200ZM865,186.82v10.83h-1.73V186.82Z"/><path class="cls-1" d="M886,194.76v1.39H868.84v-1.39Zm-1.54-1.2c-3-.4-5.83-1.74-7-3.78-1.2,2-4,3.38-7,3.78l-.59-1.31c3.44-.38,6.75-2.28,6.75-4.61v-.72h1.78v.72c0,2.33,3.29,4.23,6.71,4.61Zm-11.78,10.62h11.7v1.35H871V201h11.11v-1.77H870.91v-1.31h12.88v4.35H872.66Z"/><path class="cls-1" d="M900,196.2a53.87,53.87,0,0,1-9.19.61h-1.52v-5.3h6.84v-2.39h-6.9v-1.39h8.61v5.11H891v2.55a51,51,0,0,0,8.83-.59Zm2.13,2h1.71v7.33H891.56v-7.33h1.71v2.24h8.85Zm0,3.59h-8.85v2.32h8.85Zm1.71-14.93v10.39H902.1V186.82Z"/><path class="cls-1" d="M923.31,188.83c0,5.38-2.47,10.26-8.6,13.32l-1-1.35c4.84-2.43,7.44-6.06,7.84-10.54h-7v-1.43Zm7.94,7.09h-3v9.82h-1.74V186.8h1.74v7.69h3Z"/><path class="cls-1" d="M950.21,195.67v1.41H933.09v-1.41Zm-2.11,6.57c0,2.19-2.45,3.44-6.48,3.44s-6.49-1.25-6.49-3.44,2.45-3.47,6.49-3.47S948.1,200,948.1,202.24Zm.15-8.77H935.39V187.2h1.73v4.88h11.13Zm-1.9,8.77c0-1.36-1.75-2.12-4.73-2.12s-4.73.76-4.73,2.12,1.75,2.09,4.73,2.09S946.35,203.54,946.35,202.24Z"/><path class="cls-1" d="M44.78,113.92a44.47,44.47,0,0,1-8.85.84H34.45v-8.22h1.71v6.76a43,43,0,0,0,8.41-.82Zm-1.5,4.66c.08,2.09,2.85,3.93,6,4.46l-.68,1.33c-2.74-.47-5.17-1.88-6.23-3.78-1,1.9-3.5,3.29-6.25,3.76L35.44,123c3.19-.51,5.94-2.31,6-4.44h-5.3v-1.39H48.54v1.39ZM51,110.13v1.44H48.22v4.67H46.49V105.49h1.73v4.64Z"/><path class="cls-1" d="M63.64,105.93h1.65v17.59H63.64v-9.23H61.25c-.14,3.72-1.69,6-4,6s-4.05-2.53-4.05-6.63,1.58-6.57,4.05-6.57c2.28,0,3.8,2.22,4,5.79h2.39Zm-4,7.73c0-3-1-5-2.45-5s-2.47,1.92-2.47,5,.95,5,2.47,5S59.69,116.77,59.69,113.66Zm9.36-8.15v18.94H67.4V105.51Z"/><path class="cls-1" d="M89.53,115.16v1.39H72.36v-1.39Zm-13.24,7.41H87.68V124H74.56v-5.53h1.73Zm11.28-9.94H74.69v-6.42h1.73v5H87.57Z"/><path class="cls-1" d="M107.28,115.25H98.51V106.5h1.71v2.85h5.37V106.5h1.69Zm-1.69-4.54h-5.37v3.14h5.37Zm-5,6.75h11.89v6.74H100.54Zm1.69,5.35h8.49v-4h-8.49Zm13-11.34h-2.81v4.94H110.7V105.53h1.73V110h2.81Z"/><path class="cls-1" d="M127.49,113.58c0,4-2,6.61-4.82,6.61s-4.81-2.58-4.81-6.61,2-6.61,4.81-6.61S127.49,109.54,127.49,113.58Zm-8,0c0,3.08,1.31,5.07,3.16,5.07s3.15-2,3.15-5.07-1.31-5-3.15-5S119.51,110.51,119.51,113.58Zm13.15-8.07v19h-1.73v-19Z"/><path class="cls-1" d="M159.66,120.25v1.44H142.53v-1.44Zm-4-11.32H144.37v-1.41h13v1.9a46.65,46.65,0,0,1-.74,9.23l-1.73-.19a43,43,0,0,0,.76-9Z"/><path class="cls-1" d="M173.64,114.91a53.87,53.87,0,0,1-9.19.61h-1.52v-5.3h6.84v-2.39h-6.9v-1.39h8.61v5.11h-6.86v2.55a51,51,0,0,0,8.83-.59Zm2.13,2h1.71v7.33H165.21v-7.33h1.71v2.24h8.85Zm0,3.59h-8.85v2.32h8.85Zm1.71-14.93v10.39h-1.73V105.53Z"/><path class="cls-1" d="M198.52,120.38v1.41H181.39v-1.41H188V113.6h1.74v6.78Zm-3.78-11.55H183.19v-1.42h13.28v1.88a42.56,42.56,0,0,1-.72,8.76l-1.73-.19a40.29,40.29,0,0,0,.72-8.57Z"/><path class="cls-1" d="M17.72,140.59H9v-8.74h1.71v2.85H16v-2.85h1.69ZM16,136.05H10.67v3.15H16Zm-5,6.76H22.88v6.73H11Zm1.69,5.34h8.49v-4H12.68Zm13-11.34h-2.8v4.94H21.14V130.88h1.74v4.47h2.8Z"/><path class="cls-1" d="M38.3,131.28h1.64v17.59H38.3v-9.23H35.91c-.15,3.72-1.69,6-4,6s-4.06-2.54-4.06-6.63,1.59-6.57,4.06-6.57c2.28,0,3.8,2.22,4,5.79H38.3ZM34.35,139c0-3-1-5-2.45-5s-2.47,1.93-2.47,5,.95,5,2.47,5S34.35,142.11,34.35,139Zm9.35-8.16v19H42.05v-19Z"/><path class="cls-1" d="M64.19,140.51v1.39H47v-1.39ZM51,147.92H62.33v1.41H49.22V143.8H51ZM62.22,138H49.34v-6.42h1.73v5H62.22Z"/><path class="cls-1" d="M83.64,139.26a44.47,44.47,0,0,1-8.85.84H73.31v-8.21H75v6.76a42.19,42.19,0,0,0,8.4-.83Zm-1.5,4.67c.09,2.09,2.85,3.93,6,4.45l-.68,1.33c-2.74-.46-5.17-1.88-6.23-3.78-1,1.9-3.5,3.3-6.25,3.76l-.67-1.33c3.19-.5,5.93-2.3,6-4.43H75v-1.4H87.4v1.4Zm7.75-8.45v1.44H87.08v4.66H85.35V130.83h1.73v4.65Z"/><path class="cls-1" d="M102.14,138.92c0,4-2,6.61-4.81,6.61s-4.82-2.57-4.82-6.61,2-6.61,4.82-6.61S102.14,134.89,102.14,138.92Zm-8,0c0,3.09,1.31,5.07,3.17,5.07s3.15-2,3.15-5.07-1.31-5-3.15-5S94.16,135.86,94.16,138.92Zm13.16-8.07v19h-1.73v-19Z"/><path class="cls-1" d="M134.31,145.6V147H117.18V145.6Zm-4-11.32H119v-1.42h13v1.9a46.6,46.6,0,0,1-.74,9.23l-1.73-.19a42.88,42.88,0,0,0,.76-9Z"/><path class="cls-1" d="M139.42,143.8a56.46,56.46,0,0,0,9.21-.67l.17,1.41a54.94,54.94,0,0,1-9.54.7h-1.57V138h7V134h-7v-1.41h8.78v6.76h-7Zm12.72-13v19h-1.73v-19Z"/><path class="cls-1" d="M165.44,140.27v1.78H171v4.26H159.83v1.93h11.7v1.35H158.14v-4.54h11.11v-1.69H158.1v-1.31h5.61v-1.78H156v-1.39h17.1v1.39Zm-7.51-5.91c0-2.13,2.49-3.29,6.65-3.29s6.65,1.16,6.65,3.29-2.47,3.27-6.65,3.27S157.93,136.49,157.93,134.36Zm1.77,0c0,1.27,1.77,2,4.88,2s4.88-.72,4.88-2-1.78-2-4.88-2S159.7,133.09,159.7,134.36Z"/><path class="cls-1" d="M183.53,143.4a13,13,0,0,0,2.57-.34l.17,1.44a14.94,14.94,0,0,1-3.57.36h-.76V133.24H186v1.42h-2.47Zm4.85,0a14.16,14.16,0,0,0,3-.42l.15,1.43a14.64,14.64,0,0,1-3.95.43h-.78V133.24H191v1.42h-2.6Zm9.32-12.57v18.93h-1.65V140h-2.22v8.85h-1.6V131.28h1.6v7.3h2.22v-7.73Z"/><path class="cls-1" d="M362.6,113.88l-.3-.09.92.3Z"/><path class="cls-1" d="M531.65,133.49V65.76l-29-2.62h-.19c-1.28,0-1.93.61-1.93,1.81a1.68,1.68,0,0,0,.48,1.1,1.62,1.62,0,0,0,1.26.54l10.57,1.09v19H473.31V65.76l-28.95-2.62h-.2c-1.28,0-1.93.61-1.93,1.81a1.65,1.65,0,0,0,.49,1.1,1.6,1.6,0,0,0,1.25.54l10.58,1.09v83.61c9-2.18,13.69-6.16,16.12-9.81h42.21v9.81C532.34,146.59,531.65,133.49,531.65,133.49Zm-18.77-12.7v14.14H473.22a10,10,0,0,0,.09-1.44V93.2h39.57Z"/><path class="cls-1" d="M410.83,81.93a99.63,99.63,0,0,1-23.67,6.54,175.55,175.55,0,0,1-19.81,1.81l0,0-1.13,0c-2,.07-4,.11-6.08.13-13,.26-16,.18-16,.18V37.88c0-3.06-.27-6.05-.27-6.05-1.81-6.1-5.59-7.37-7.68-7.59H317.72c-1.28,0-1.93.69-1.93,2.05s.65,2.05,1.93,2.05H325V92.57a13.63,13.63,0,0,0,1,4.08,7,7,0,0,0,2.3,2.77,7.47,7.47,0,0,0,4.43,1.12h23.85A145.39,145.39,0,0,0,381.3,98.6a133.3,133.3,0,0,0,20.49-5.12,101.29,101.29,0,0,0,16.53-7.25c2.83-1.64,5.51-3.28,8.08-4.92v-8A118.23,118.23,0,0,1,410.83,81.93Z"/><path class="cls-1" d="M445.17,50.86h29.28a14.31,14.31,0,0,0-3.94-10.13A13,13,0,0,0,454,38.58a13.81,13.81,0,0,0-4.91,5.52h-3.88V8L416.21,5H416c-1.28,0-1.93.69-1.93,2a2,2,0,0,0,.48,1.23,1.54,1.54,0,0,0,1.26.62l10.57,1.22v94.1c19.46-5.29,18.77-20,18.77-20Z"/><path class="cls-1" d="M579.31,97h29.28a14.27,14.27,0,0,0-3.94-10.13,13,13,0,0,0-16.54-2.15,13.83,13.83,0,0,0-4.92,5.52h-3.88V54.06l-29-3h-.19c-1.28,0-1.93.69-1.93,2a1.93,1.93,0,0,0,.49,1.23A1.51,1.51,0,0,0,550,55l10.58,1.22v94.1c19.46-5.29,18.76-20,18.76-20Z"/><path class="cls-1" d="M593.38,213.55a3.3,3.3,0,0,0-2.3-.89l-7.7-2V166.86a6.41,6.41,0,0,0-1.69-4.11,10.3,10.3,0,0,0-2-1.77,15.47,15.47,0,0,0-8.89-2.51,17.06,17.06,0,0,0-6.55,1.22,11.15,11.15,0,0,0-4.33,3.06H496.44l-18.61-1.68-10.19-.92h-.2c-1.29,0-1.93.61-1.93,1.81,0,0,0,.07,0,.1v0a1.72,1.72,0,0,0,.47,1,1.62,1.62,0,0,0,1.26.54l10.57,1.09v63.19c8.11-1.95,12.7-5.36,15.31-8.68h97.94a3.11,3.11,0,0,0,2.3-1,3.27,3.27,0,0,0,1-2.38A2.93,2.93,0,0,0,593.38,213.55Zm-32.45-.89H496.3a11.43,11.43,0,0,0,.29-2.31V169.29h64.34Z"/><path class="cls-1" d="M443.34,159a14.79,14.79,0,0,0-5.43-7.12c-1-.63-3.34-2.19-6.93-4.7s-7.58-5.23-12-8.12-8.77-5.71-13.07-8.42a87.45,87.45,0,0,0-8.36-4.79c1.07-1.84,1.59-3,1.59-3,.58-1.62,1.54-4.66,1.54-4.66a2.71,2.71,0,0,0-1.32-2.79h42.1q0-3.54-3.67-6a15.44,15.44,0,0,0-8.89-2.51,17.09,17.09,0,0,0-6.55,1.22,11,11,0,0,0-4.32,3.06H328.24q0,3.54,3.68,6a15.44,15.44,0,0,0,8.89,2.51,17.09,17.09,0,0,0,6.55-1.22,11,11,0,0,0,4.32-3.06h25.5a99.49,99.49,0,0,1-5.75,13.62,85.58,85.58,0,0,1-10.22,15.44,109.33,109.33,0,0,1-15.25,15,85.94,85.94,0,0,1-20.9,12.37l2.16,2.65c37.62-10.73,57.11-30.35,65.88-42.09,7.58,8.89,27.74,32,39.1,39.93,0,0,4.9,3.31,9.07-.58h0a14.78,14.78,0,0,0,2.63-4.34A15.78,15.78,0,0,0,443.34,159Z"/><circle class="cls-2" cx="337.46" cy="113.88" r="20.68"/><circle class="cls-2" cx="573.66" cy="161.42" r="20.68"/><line class="cls-3" x1="214.62" y1="110.52" x2="316.78" y2="110.52"/><line class="cls-3" x1="594.87" y1="164.69" x2="697.03" y2="164.69"/><rect class="cls-4" x="780.09" y="95.65" width="2.39" height="5.18"/><rect class="cls-4" x="780.09" y="76.93" width="2.39" height="10.56"/><rect class="cls-4" x="780.09" y="92" width="2.39" height="2.49"/><rect class="cls-4" x="780.09" y="88.61" width="2.39" height="2.49"/><line class="cls-4" x1="756.22" y1="102.36" x2="758.81" y2="106.85"/><rect class="cls-4" x="756.32" y="102.02" width="2.39" height="5.18" transform="translate(48.87 391.99) rotate(-29.94)"/><line class="cls-4" x1="754.4" y1="99.21" x2="755.64" y2="101.36"/><rect class="cls-4" x="753.83" y="99.04" width="2.39" height="2.49" transform="translate(50.66 390.11) rotate(-29.93)"/><line class="cls-4" x1="752.7" y1="96.27" x2="753.94" y2="98.42"/><rect class="cls-4" x="752.13" y="96.1" width="2.39" height="2.49" transform="translate(52.18 389.52) rotate(-29.99)"/><line class="cls-4" x1="737.87" y1="120.71" x2="742.36" y2="123.31"/><rect class="cls-4" x="738.92" y="119.42" width="2.39" height="5.19" transform="translate(264.58 702.12) rotate(-60.02)"/><line class="cls-4" x1="721.66" y1="111.36" x2="730.81" y2="116.64"/><rect class="cls-4" x="725.04" y="108.71" width="2.39" height="10.57" transform="translate(264.52 686.04) rotate(-60.01)"/><line class="cls-4" x1="734.71" y1="118.89" x2="736.87" y2="120.14"/><polygon class="cls-4" points="736.27 121.18 734.12 119.93 735.31 117.86 737.47 119.1 736.27 121.18"/><line class="cls-4" x1="731.77" y1="117.2" x2="733.93" y2="118.44"/><polygon class="cls-4" points="733.33 119.48 731.17 118.23 732.37 116.16 734.53 117.4 733.33 119.48"/><line class="cls-4" x1="732.2" y1="145.78" x2="737.39" y2="145.78"/><rect class="cls-4" x="732.2" y="144.59" width="5.19" height="2.39"/><line class="cls-4" x1="728.56" y1="145.78" x2="731.05" y2="145.78"/><rect class="cls-4" x="728.57" y="144.59" width="2.48" height="2.39"/><line class="cls-4" x1="725.17" y1="145.78" x2="727.65" y2="145.78"/><rect class="cls-4" x="725.17" y="144.59" width="2.48" height="2.39"/><line class="cls-4" x1="830.24" y1="145.78" x2="825.05" y2="145.78"/><rect class="cls-4" x="825.05" y="144.59" width="5.19" height="2.39"/><line class="cls-4" x1="833.88" y1="145.78" x2="831.39" y2="145.78"/><rect class="cls-4" x="831.39" y="144.59" width="2.48" height="2.39"/><line class="cls-4" x1="837.28" y1="145.78" x2="834.79" y2="145.78"/><rect class="cls-4" x="834.79" y="144.59" width="2.48" height="2.39"/><line class="cls-4" x1="824.71" y1="120.71" x2="820.21" y2="123.31"/><rect class="cls-4" x="819.87" y="120.81" width="5.19" height="2.39" transform="translate(49.01 427.13) rotate(-29.97)"/><line class="cls-4" x1="840.91" y1="111.36" x2="831.76" y2="116.64"/><rect class="cls-4" x="831.05" y="112.8" width="10.57" height="2.39" transform="translate(54.86 432.99) rotate(-29.97)"/><line class="cls-4" x1="827.86" y1="118.89" x2="825.7" y2="120.14"/><polygon class="cls-4" points="826.3 121.18 825.1 119.1 827.26 117.86 828.45 119.93 826.3 121.18"/><line class="cls-4" x1="830.8" y1="117.2" x2="828.64" y2="118.44"/><polygon class="cls-4" points="829.24 119.48 828.04 117.4 830.2 116.16 831.4 118.23 829.24 119.48"/><line class="cls-4" x1="806.35" y1="102.36" x2="803.76" y2="106.85"/><polygon class="cls-4" points="804.8 107.45 802.72 106.26 805.32 101.76 807.39 102.96 804.8 107.45"/><line class="cls-4" x1="808.17" y1="99.21" x2="806.93" y2="101.36"/><rect class="cls-4" x="806.3" y="99.09" width="2.49" height="2.39" transform="translate(317.3 749.79) rotate(-60.03)"/><line class="cls-4" x1="809.87" y1="96.27" x2="808.63" y2="98.42"/><rect class="cls-4" x="808" y="96.15" width="2.49" height="2.39" transform="translate(320.7 749.78) rotate(-60.03)"/><path class="cls-4" d="M781.28,107.54A38.24,38.24,0,0,0,743,145.78c0,.41.11.79.12,1.2h76.25c0-.41.12-.79.12-1.2A38.24,38.24,0,0,0,781.28,107.54Z"/><path class="cls-4" d="M145.91,48.82a38.37,38.37,0,0,0-38.28,38.45c0,.42.11.8.12,1.21h76.32c0-.41.12-.79.12-1.21A38.37,38.37,0,0,0,145.91,48.82Z"/><ellipse class="cls-4" cx="145.91" cy="40.52" rx="1.97" ry="1.98"/><ellipse class="cls-4" cx="187.06" cy="65.96" rx="1.97" ry="1.98"/><ellipse class="cls-4" cx="106.69" cy="63.98" rx="1.97" ry="1.98"/><path class="cls-4" d="M118.52,46.43a10.1,10.1,0,0,1,5.24,3.41l-5.41-9.91A8.92,8.92,0,0,1,118.52,46.43Z"/><path class="cls-4" d="M118.35,39.93l5.41,9.91a10.2,10.2,0,0,1,0-6.27A8.92,8.92,0,0,1,118.35,39.93Z"/><path class="cls-4" d="M173.12,46.43a10.1,10.1,0,0,0-5.24,3.41l5.41-9.91A9,9,0,0,0,173.12,46.43Z"/><path class="cls-4" d="M173.29,39.93l-5.41,9.91a10.2,10.2,0,0,0,0-6.27A8.92,8.92,0,0,0,173.29,39.93Z"/><path class="cls-4" d="M193.76,88.91a10.06,10.06,0,0,0-5.61-2.76l11.25-.44A8.83,8.83,0,0,0,193.76,88.91Z"/><path class="cls-4" d="M199.4,85.71l-11.25.44A10.15,10.15,0,0,0,193.53,83,8.88,8.88,0,0,0,199.4,85.71Z"/><path class="cls-4" d="M97.52,88.91a10.06,10.06,0,0,0-5.61-2.76l11.25-.44A8.83,8.83,0,0,0,97.52,88.91Z"/><path class="cls-4" d="M103.16,85.71l-11.25.44A10.15,10.15,0,0,0,97.29,83,8.88,8.88,0,0,0,103.16,85.71Z"/></svg>