<svg id="Layer_1" data-name="Layer 1" xmlns="http://www.w3.org/2000/svg" xmlns:xlink="http://www.w3.org/1999/xlink" viewBox="0 0 960.98 300.37"><defs><style>.cls-1{fill:#1d1e4c;stroke:#fff;stroke-width:0.57px;}.cls-1,.cls-28,.cls-3{stroke-miterlimit:10;}.cls-2{fill:#ffe265;}.cls-3,.cls-69{fill:none;}.cls-28,.cls-3{stroke:#ffe265;stroke-width:0.28px;}.cls-4{opacity:0.21;}.cls-5{fill:url(#linear-gradient);}.cls-6{fill:url(#linear-gradient-2);}.cls-7{fill:url(#linear-gradient-3);}.cls-8{fill:url(#linear-gradient-4);}.cls-9{fill:url(#linear-gradient-5);}.cls-10{fill:url(#linear-gradient-6);}.cls-11{fill:url(#linear-gradient-7);}.cls-12{fill:url(#linear-gradient-8);}.cls-13{fill:url(#linear-gradient-9);}.cls-14{fill:url(#linear-gradient-10);}.cls-15{fill:url(#linear-gradient-11);}.cls-16{fill:url(#linear-gradient-13);}.cls-17{fill:url(#linear-gradient-15);}.cls-18,.cls-22,.cls-23{fill:#fff;}.cls-18{opacity:0.33;}.cls-19{fill:#1b154b;opacity:0.7;}.cls-20{fill:#e4eaee;opacity:0.69;}.cls-21{fill:#ffc30e;opacity:0.68;}.cls-22{opacity:0.74;}.cls-23{opacity:0.57;}.cls-24{opacity:0.34;}.cls-25{fill:url(#linear-gradient-17);}.cls-26{fill:url(#linear-gradient-18);}.cls-27{fill:url(#linear-gradient-19);}.cls-28{fill:url(#linear-gradient-20);}.cls-29{fill:url(#linear-gradient-21);}.cls-30{fill:url(#linear-gradient-22);}.cls-31{fill:url(#linear-gradient-23);}.cls-32{fill:url(#linear-gradient-24);}.cls-33{fill:url(#linear-gradient-25);}.cls-34{fill:url(#linear-gradient-26);}.cls-35{fill:url(#linear-gradient-27);}.cls-36{fill:url(#linear-gradient-28);}.cls-37{fill:url(#linear-gradient-29);}.cls-38{fill:url(#linear-gradient-30);}.cls-39{fill:url(#linear-gradient-31);}.cls-40{fill:url(#linear-gradient-32);}.cls-41{fill:url(#linear-gradient-33);}.cls-42{fill:url(#linear-gradient-34);}.cls-43{fill:url(#linear-gradient-35);}.cls-44{fill:url(#linear-gradient-36);}.cls-45{fill:url(#linear-gradient-37);}.cls-46{fill:url(#linear-gradient-38);}.cls-47{fill:url(#linear-gradient-39);}.cls-48{fill:url(#linear-gradient-41);}.cls-49{fill:url(#linear-gradient-43);}.cls-50{fill:url(#linear-gradient-44);}.cls-51{fill:url(#linear-gradient-45);}.cls-52{fill:url(#linear-gradient-46);}.cls-53{fill:url(#linear-gradient-47);}.cls-54{fill:url(#linear-gradient-49);}.cls-55{fill:url(#linear-gradient-50);}.cls-56{fill:url(#linear-gradient-51);}.cls-57{fill:url(#linear-gradient-52);}.cls-58{fill:url(#linear-gradient-53);}.cls-59{fill:url(#linear-gradient-54);}.cls-60{fill:url(#linear-gradient-55);}.cls-61{fill:url(#linear-gradient-56);}.cls-62{fill:url(#linear-gradient-57);}.cls-63{fill:url(#linear-gradient-58);}.cls-64{fill:url(#linear-gradient-59);}.cls-65{fill:url(#linear-gradient-60);}.cls-66{fill:url(#linear-gradient-61);}.cls-67{fill:url(#linear-gradient-62);}.cls-68{fill:url(#linear-gradient-63);}</style><linearGradient id="linear-gradient" x1="351.77" y1="115.16" x2="351.77" y2="135.93" gradientUnits="userSpaceOnUse"><stop offset="0" stop-color="#fff"/><stop offset="1" stop-opacity="0"/></linearGradient><linearGradient id="linear-gradient-2" x1="344.2" y1="115.16" x2="344.2" y2="135.93" xlink:href="#linear-gradient"/><linearGradient id="linear-gradient-3" x1="337.69" y1="115.16" x2="337.69" y2="135.93" xlink:href="#linear-gradient"/><linearGradient id="linear-gradient-4" x1="329.04" y1="115.16" x2="329.04" y2="135.93" xlink:href="#linear-gradient"/><linearGradient id="linear-gradient-5" x1="321.63" y1="115.16" x2="321.63" y2="135.93" xlink:href="#linear-gradient"/><linearGradient id="linear-gradient-6" x1="343.58" y1="112.19" x2="343.58" y2="112.19" xlink:href="#linear-gradient"/><linearGradient id="linear-gradient-7" x1="311.68" y1="115.16" x2="311.68" y2="135.93" xlink:href="#linear-gradient"/><linearGradient id="linear-gradient-8" x1="311.68" y1="115.16" x2="311.68" y2="135.93" xlink:href="#linear-gradient"/><linearGradient id="linear-gradient-9" x1="307.33" y1="115.16" x2="307.33" y2="135.93" xlink:href="#linear-gradient"/><linearGradient id="linear-gradient-10" x1="315.82" y1="115.16" x2="315.82" y2="135.93" xlink:href="#linear-gradient"/><linearGradient id="linear-gradient-11" x1="314.3" y1="115.16" x2="314.3" y2="135.93" xlink:href="#linear-gradient"/><linearGradient id="linear-gradient-13" x1="309.07" y1="115.16" x2="309.07" y2="135.93" xlink:href="#linear-gradient"/><linearGradient id="linear-gradient-15" x1="306.62" y1="115.16" x2="306.62" y2="135.93" xlink:href="#linear-gradient"/><linearGradient id="linear-gradient-17" x1="635.95" y1="236.71" x2="635.32" y2="255.6" xlink:href="#linear-gradient"/><linearGradient id="linear-gradient-18" x1="626.04" y1="236.38" x2="625.41" y2="255.26" xlink:href="#linear-gradient"/><linearGradient id="linear-gradient-19" x1="618.8" y1="236.14" x2="618.17" y2="255.02" xlink:href="#linear-gradient"/><linearGradient id="linear-gradient-20" x1="616.49" y1="236.06" x2="615.86" y2="254.95" xlink:href="#linear-gradient"/><linearGradient id="linear-gradient-21" x1="649.18" y1="237.15" x2="648.55" y2="256.04" xlink:href="#linear-gradient"/><linearGradient id="linear-gradient-22" x1="649.18" y1="237.15" x2="648.55" y2="256.04" xlink:href="#linear-gradient"/><linearGradient id="linear-gradient-23" x1="649.23" y1="237.15" x2="648.6" y2="256.04" xlink:href="#linear-gradient"/><linearGradient id="linear-gradient-24" x1="649.23" y1="237.15" x2="648.6" y2="256.04" xlink:href="#linear-gradient"/><linearGradient id="linear-gradient-25" x1="649.19" y1="237.15" x2="648.56" y2="256.04" xlink:href="#linear-gradient"/><linearGradient id="linear-gradient-26" x1="649.19" y1="237.15" x2="648.56" y2="256.04" xlink:href="#linear-gradient"/><linearGradient id="linear-gradient-27" x1="649.21" y1="237.15" x2="648.58" y2="256.04" xlink:href="#linear-gradient"/><linearGradient id="linear-gradient-28" x1="649.21" y1="237.15" x2="648.58" y2="256.04" xlink:href="#linear-gradient"/><linearGradient id="linear-gradient-29" x1="651.67" y1="237.24" x2="651.04" y2="256.12" xlink:href="#linear-gradient"/><linearGradient id="linear-gradient-30" x1="651.66" y1="237.24" x2="651.04" y2="256.12" gradientTransform="translate(205.4 -293.54) rotate(29.94)" xlink:href="#linear-gradient"/><linearGradient id="linear-gradient-31" x1="651.94" y1="237.24" x2="651.31" y2="256.13" xlink:href="#linear-gradient"/><linearGradient id="linear-gradient-32" x1="651.94" y1="237.24" x2="651.31" y2="256.13" gradientTransform="translate(205.61 -293.57) rotate(29.93)" xlink:href="#linear-gradient"/><linearGradient id="linear-gradient-33" x1="652.13" y1="237.25" x2="651.5" y2="256.13" xlink:href="#linear-gradient"/><linearGradient id="linear-gradient-34" x1="652.13" y1="237.25" x2="651.5" y2="256.13" gradientTransform="translate(206.29 -294.04) rotate(29.99)" xlink:href="#linear-gradient"/><linearGradient id="linear-gradient-35" x1="653.44" y1="237.29" x2="652.81" y2="256.18" xlink:href="#linear-gradient"/><linearGradient id="linear-gradient-36" x1="653.44" y1="237.29" x2="652.81" y2="256.18" gradientTransform="translate(530.93 -448.23) rotate(60.02)" xlink:href="#linear-gradient"/><linearGradient id="linear-gradient-37" x1="654.94" y1="237.34" x2="654.31" y2="256.23" xlink:href="#linear-gradient"/><linearGradient id="linear-gradient-38" x1="654.94" y1="237.34" x2="654.31" y2="256.23" gradientTransform="translate(532.33 -449.07) rotate(60.01)" xlink:href="#linear-gradient"/><linearGradient id="linear-gradient-39" x1="653.91" y1="237.31" x2="653.28" y2="256.19" xlink:href="#linear-gradient"/><linearGradient id="linear-gradient-41" x1="654.22" y1="237.32" x2="653.59" y2="256.2" xlink:href="#linear-gradient"/><linearGradient id="linear-gradient-43" x1="653.92" y1="237.31" x2="653.29" y2="256.19" xlink:href="#linear-gradient"/><linearGradient id="linear-gradient-44" x1="653.92" y1="237.31" x2="653.29" y2="256.19" xlink:href="#linear-gradient"/><linearGradient id="linear-gradient-45" x1="654.45" y1="237.33" x2="653.82" y2="256.21" xlink:href="#linear-gradient"/><linearGradient id="linear-gradient-46" x1="654.45" y1="237.33" x2="653.82" y2="256.21" xlink:href="#linear-gradient"/><linearGradient id="linear-gradient-47" x1="654.81" y1="237.34" x2="654.18" y2="256.22" xlink:href="#linear-gradient"/><linearGradient id="linear-gradient-49" x1="644.74" y1="237" x2="644.11" y2="255.89" xlink:href="#linear-gradient"/><linearGradient id="linear-gradient-50" x1="644.74" y1="237" x2="644.11" y2="255.89" gradientTransform="translate(203.84 -290.59) rotate(29.97)" xlink:href="#linear-gradient"/><linearGradient id="linear-gradient-51" x1="643.31" y1="236.96" x2="642.68" y2="255.84" xlink:href="#linear-gradient"/><linearGradient id="linear-gradient-52" x1="643.31" y1="236.96" x2="642.68" y2="255.84" gradientTransform="translate(204.06 -289.74) rotate(29.97)" xlink:href="#linear-gradient"/><linearGradient id="linear-gradient-53" x1="644.3" y1="236.99" x2="643.67" y2="255.87" xlink:href="#linear-gradient"/><linearGradient id="linear-gradient-54" x1="644.3" y1="236.99" x2="643.67" y2="255.87" xlink:href="#linear-gradient"/><linearGradient id="linear-gradient-55" x1="643.99" y1="236.98" x2="643.36" y2="255.86" xlink:href="#linear-gradient"/><linearGradient id="linear-gradient-56" x1="643.99" y1="236.98" x2="643.36" y2="255.86" xlink:href="#linear-gradient"/><linearGradient id="linear-gradient-57" x1="646.64" y1="237.07" x2="646.01" y2="255.95" xlink:href="#linear-gradient"/><linearGradient id="linear-gradient-58" x1="646.64" y1="237.07" x2="646.01" y2="255.95" xlink:href="#linear-gradient"/><linearGradient id="linear-gradient-59" x1="646.4" y1="237.06" x2="645.77" y2="255.94" xlink:href="#linear-gradient"/><linearGradient id="linear-gradient-60" x1="646.4" y1="237.06" x2="645.77" y2="255.94" gradientTransform="translate(529.53 -440.94) rotate(60.03)" xlink:href="#linear-gradient"/><linearGradient id="linear-gradient-61" x1="646.23" y1="237.05" x2="645.6" y2="255.94" xlink:href="#linear-gradient"/><linearGradient id="linear-gradient-62" x1="646.23" y1="237.05" x2="645.6" y2="255.94" gradientTransform="translate(529.7 -440.63) rotate(60.03)" xlink:href="#linear-gradient"/><linearGradient id="linear-gradient-63" x1="649.01" y1="237.15" x2="648.38" y2="256.03" xlink:href="#linear-gradient"/></defs><title>introduce_article04-04</title><path class="cls-1" d="M566.08,50.52A101.28,101.28,0,0,0,410.72,32.9a97.7,97.7,0,0,0-29.9,69l0,1.54V291.34H581.64V102.18l0-.32A97.81,97.81,0,0,0,566.08,50.52Z"/><path class="cls-2" d="M605.06,215.82H606l6.4,7.14h.08v-7.14h.72v10h-.38l-6.94-7.94h-.06v7.72h-.74Z"/><path class="cls-2" d="M615.83,215.15a.78.78,0,0,1,.07-.33.86.86,0,0,1,.79-.52.78.78,0,0,1,.33.07.83.83,0,0,1,.45.45.78.78,0,0,1,.07.33.85.85,0,0,1-.52.79.78.78,0,0,1-.33.07.86.86,0,0,1-.86-.86Zm.12,3.18,1-.43h.44v7.69H616Z"/><path class="cls-2" d="M627.29,218.44v.63h-1.42a3.18,3.18,0,0,1,.35.69,2.29,2.29,0,0,1,.13.76,2.12,2.12,0,0,1-.26,1.07,2.56,2.56,0,0,1-.71.83,3.36,3.36,0,0,1-1.11.53,4.76,4.76,0,0,1-1.41.19,4,4,0,0,1-.59,0,3.08,3.08,0,0,1-.52-.12,1.77,1.77,0,0,0-.36.41.91.91,0,0,0-.14.46.41.41,0,0,0,.24.37,1.79,1.79,0,0,0,.71.15l2.78.13a4.74,4.74,0,0,1,1.12.15,2.24,2.24,0,0,1,.71.35,1.2,1.2,0,0,1,.37.51,1.78,1.78,0,0,1,.11.67,2.35,2.35,0,0,1-.3,1.18,2.75,2.75,0,0,1-.88.92,4.61,4.61,0,0,1-1.4.58,8.28,8.28,0,0,1-1.88.2,10,10,0,0,1-1.64-.11,5,5,0,0,1-1.16-.31,1.8,1.8,0,0,1-.69-.49,1,1,0,0,1-.23-.63,1.27,1.27,0,0,1,.15-.6,2.9,2.9,0,0,1,.4-.54,5.3,5.3,0,0,1,.54-.51l.58-.46-.39-.16a1.41,1.41,0,0,1-.31-.21.76.76,0,0,1-.2-.25.6.6,0,0,1-.08-.29,1.07,1.07,0,0,1,.12-.48,2.07,2.07,0,0,1,.34-.47,2.41,2.41,0,0,1,.48-.41,2.35,2.35,0,0,1,.59-.3,3,3,0,0,1-1.19-.9,2.23,2.23,0,0,1-.43-1.33,2.27,2.27,0,0,1,.26-1.05,2.63,2.63,0,0,1,.7-.86,3.34,3.34,0,0,1,1.05-.58,3.66,3.66,0,0,1,1.3-.22,4.91,4.91,0,0,1,.67,0,5.12,5.12,0,0,1,.61.11,3.63,3.63,0,0,1,.5.17,1.44,1.44,0,0,1,.34.21Zm-6,7.09a1.33,1.33,0,0,0-.3.28,2.2,2.2,0,0,0-.21.32,1.19,1.19,0,0,0-.13.34,1.39,1.39,0,0,0-.05.33.76.76,0,0,0,.18.48,1.55,1.55,0,0,0,.53.41,3.74,3.74,0,0,0,.89.28,7.41,7.41,0,0,0,1.24.1,6.74,6.74,0,0,0,1.34-.12,4.48,4.48,0,0,0,1-.31,2,2,0,0,0,.64-.44.73.73,0,0,0,.21-.48.69.69,0,0,0-.13-.43.88.88,0,0,0-.37-.31,2.17,2.17,0,0,0-.59-.17,4.58,4.58,0,0,0-.78-.06l-1.1,0c-.37,0-.71,0-1-.06l-.84-.07Zm1.86-2.78a1.43,1.43,0,0,0,.61-.14,1.68,1.68,0,0,0,.52-.4,2,2,0,0,0,.36-.58,2,2,0,0,0,.13-.73,3.42,3.42,0,0,0-.15-1,2.86,2.86,0,0,0-.41-.82,1.84,1.84,0,0,0-.6-.55,1.49,1.49,0,0,0-.73-.2,1.33,1.33,0,0,0-.65.15,1.35,1.35,0,0,0-.46.43,2.21,2.21,0,0,0-.26.65,3.45,3.45,0,0,0-.08.8,3.58,3.58,0,0,0,.12.95,2.73,2.73,0,0,0,.35.77,1.93,1.93,0,0,0,.55.52A1.38,1.38,0,0,0,623.11,222.75Z"/><path class="cls-2" d="M630.19,219.43a4.89,4.89,0,0,1,1.41-1.15,3.34,3.34,0,0,1,1.51-.38,1.59,1.59,0,0,1,.74.18,2,2,0,0,1,.6.48,2.24,2.24,0,0,1,.4.73,2.6,2.6,0,0,1,.15.89v5.41h-1.49v-5.15a1.72,1.72,0,0,0-.34-1.14,1.11,1.11,0,0,0-.87-.39,1.8,1.8,0,0,0-.5.08,3.13,3.13,0,0,0-.54.23,4.1,4.1,0,0,0-.55.34,5.27,5.27,0,0,0-.52.44v5.59h-1.5v-11l1.07-.42h.43Z"/><path class="cls-2" d="M639.24,215.48h.42V218h1.68v.64h-1.68V224a.83.83,0,0,0,.07.32.78.78,0,0,0,.17.26.74.74,0,0,0,.25.17.88.88,0,0,0,.33.06.89.89,0,0,0,.45-.12,1.34,1.34,0,0,0,.36-.31l.38.25a2.54,2.54,0,0,1-.8.83,2.34,2.34,0,0,1-1.23.3,1.6,1.6,0,0,1-.65-.13,1.27,1.27,0,0,1-.46-.36,1.66,1.66,0,0,1-.27-.55,2.68,2.68,0,0,1-.09-.72v-5.31h-1.31v-.28l1.31-.36V215.9Z"/><line class="cls-3" x1="581.36" y1="232.71" x2="653.24" y2="232.71"/><path class="cls-2" d="M649.21,228.73a4,4,0,0,0-4,4s0,.09,0,.13h8.06s0-.08,0-.13A4,4,0,0,0,649.21,228.73Z"/><circle class="cls-2" cx="649.21" cy="227.86" r="0.21"/><circle class="cls-2" cx="653.56" cy="230.53" r="0.21"/><circle class="cls-2" cx="645.07" cy="230.32" r="0.21"/><path class="cls-2" d="M646.32,228.48a1.07,1.07,0,0,1,.55.36l-.57-1.05A1,1,0,0,1,646.32,228.48Z"/><path class="cls-2" d="M646.3,227.79l.57,1.05a1,1,0,0,1,0-.66A1,1,0,0,1,646.3,227.79Z"/><path class="cls-2" d="M652.08,228.48a1.07,1.07,0,0,0-.55.36l.57-1.05A1,1,0,0,0,652.08,228.48Z"/><path class="cls-2" d="M652.1,227.79l-.57,1.05a1.08,1.08,0,0,0,0-.66A1,1,0,0,0,652.1,227.79Z"/><path class="cls-2" d="M654.26,232.94a1,1,0,0,0-.59-.29l1.19,0A.92.92,0,0,0,654.26,232.94Z"/><path class="cls-2" d="M654.86,232.61l-1.19,0a1.07,1.07,0,0,0,.57-.33A.94.94,0,0,0,654.86,232.61Z"/><g class="cls-4"><path class="cls-5" d="M355.83,126.34h-.92l-6.4-7.15h-.08v7.15h-.72v-10h.38l6.94,7.94h.05v-7.71h.75Z"/><path class="cls-6" d="M345.06,127a.72.72,0,0,1-.07.33.75.75,0,0,1-.18.28.9.9,0,0,1-.28.18.81.81,0,0,1-.66,0,1,1,0,0,1-.27-.18.92.92,0,0,1-.19-.28.94.94,0,0,1,0-.66,1,1,0,0,1,.46-.46.94.94,0,0,1,.66,0,.92.92,0,0,1,.28.19.8.8,0,0,1,.18.27A.72.72,0,0,1,345.06,127Zm-.12-3.17-1.05.42h-.44v-7.68h1.49Z"/><path class="cls-7" d="M333.59,123.72v-.64H335a2.79,2.79,0,0,1-.35-.69,2.36,2.36,0,0,1,.12-1.83,2.68,2.68,0,0,1,.72-.82,3.64,3.64,0,0,1,1.1-.54A5.26,5.26,0,0,1,338,119a3.77,3.77,0,0,1,.58,0,2.87,2.87,0,0,1,.52.12,1.54,1.54,0,0,0,.36-.41.87.87,0,0,0,.15-.47.4.4,0,0,0-.25-.36,1.68,1.68,0,0,0-.7-.16l-2.78-.12a4.69,4.69,0,0,1-1.12-.16,1.82,1.82,0,0,1-.71-.35,1.18,1.18,0,0,1-.38-.51,1.9,1.9,0,0,1-.11-.66,2.4,2.4,0,0,1,.31-1.19,2.63,2.63,0,0,1,.88-.91,4.61,4.61,0,0,1,1.4-.58,7.72,7.72,0,0,1,1.88-.21,11,11,0,0,1,1.63.11,4.88,4.88,0,0,1,1.17.32,1.69,1.69,0,0,1,.69.48,1,1,0,0,1,.23.64,1.14,1.14,0,0,1-.16.59,2.78,2.78,0,0,1-.39.55c-.17.17-.35.34-.54.5l-.58.47a2.5,2.5,0,0,1,.38.15,3,3,0,0,1,.32.21,1.21,1.21,0,0,1,.2.26.6.6,0,0,1,.08.29,1,1,0,0,1-.13.47,1.87,1.87,0,0,1-.33.48,3.23,3.23,0,0,1-.48.41,3.36,3.36,0,0,1-.6.3,2.68,2.68,0,0,1,1.19.9,2.16,2.16,0,0,1,.43,1.33,2.26,2.26,0,0,1-.25,1,2.85,2.85,0,0,1-.7.86,3.55,3.55,0,0,1-1.05.58,3.94,3.94,0,0,1-1.3.21,4.92,4.92,0,0,1-.67,0,5.07,5.07,0,0,1-.61-.12,2.65,2.65,0,0,1-.5-.17,1.41,1.41,0,0,1-.35-.2Zm6.05-7.09a2,2,0,0,0,.3-.28,1.85,1.85,0,0,0,.21-.33,1.4,1.4,0,0,0,.13-.34,1.26,1.26,0,0,0,.05-.33.8.8,0,0,0-.18-.48,1.53,1.53,0,0,0-.53-.4,3.46,3.46,0,0,0-.89-.28,6.48,6.48,0,0,0-1.24-.1,7.64,7.64,0,0,0-1.34.11,4.3,4.3,0,0,0-1,.32,2,2,0,0,0-.64.43.73.73,0,0,0-.21.48.78.78,0,0,0,.12.44,1,1,0,0,0,.38.3,2.16,2.16,0,0,0,.59.18,4.58,4.58,0,0,0,.78.06l1.1,0,1,.06c.32,0,.6.05.84.08Zm-1.86,2.78a1.3,1.3,0,0,0-.61.14,1.82,1.82,0,0,0-.52.39,2.08,2.08,0,0,0-.36.59,1.88,1.88,0,0,0-.13.72,3.37,3.37,0,0,0,.15,1,2.92,2.92,0,0,0,.41.83,2.09,2.09,0,0,0,.6.55,1.49,1.49,0,0,0,.73.2,1.33,1.33,0,0,0,.65-.16,1.26,1.26,0,0,0,.46-.43,2.26,2.26,0,0,0,.26-.65,4,4,0,0,0,.08-.8,3.64,3.64,0,0,0-.12-.95,2.6,2.6,0,0,0-.36-.77,1.63,1.63,0,0,0-.54-.51A1.4,1.4,0,0,0,337.78,119.41Z"/><path class="cls-8" d="M330.7,122.73a4.75,4.75,0,0,1-1.42,1.14,3.15,3.15,0,0,1-1.5.38,1.71,1.71,0,0,1-.74-.17,1.88,1.88,0,0,1-.6-.49,2.47,2.47,0,0,1-.41-.73,2.8,2.8,0,0,1-.14-.88v-5.41h1.49v5.15a1.72,1.72,0,0,0,.34,1.14,1.1,1.1,0,0,0,.87.38,1.49,1.49,0,0,0,.5-.08,3.07,3.07,0,0,0,.54-.22,5.35,5.35,0,0,0,.54-.34,4.51,4.51,0,0,0,.53-.45v-5.58h1.5v11l-1.07.43h-.43Z"/><path class="cls-9" d="M321.65,126.68h-.43v-2.57h-1.68v-.64h1.68v-5.31a.87.87,0,0,0-.06-.32.85.85,0,0,0-.17-.25.64.64,0,0,0-.25-.18.88.88,0,0,0-.33-.06.79.79,0,0,0-.45.13,1.31,1.31,0,0,0-.36.3l-.38-.25a2.42,2.42,0,0,1,.8-.82,2.34,2.34,0,0,1,1.23-.3,1.48,1.48,0,0,1,.65.13,1.09,1.09,0,0,1,.46.36,1.57,1.57,0,0,1,.27.55,2.6,2.6,0,0,1,.09.71v5.31H324v.28l-1.31.36v2.15Z"/><line class="cls-10" x1="379.52" y1="112.19" x2="307.65" y2="112.19"/><path class="cls-11" d="M311.68,116.17a4,4,0,0,0,4-4s0-.09,0-.13h-8.06s0,.08,0,.13A4,4,0,0,0,311.68,116.17Z"/><circle class="cls-12" cx="311.68" cy="117.04" r="0.21"/><circle class="cls-13" cx="307.33" cy="114.37" r="0.21"/><circle class="cls-14" cx="315.82" cy="114.58" r="0.21"/><path class="cls-15" d="M314.57,116.42a1.07,1.07,0,0,1-.55-.36l.57,1A.94.94,0,0,1,314.57,116.42Z"/><path class="cls-15" d="M314.59,117.1l-.57-1a1,1,0,0,1,0,.66A1,1,0,0,1,314.59,117.1Z"/><path class="cls-16" d="M308.8,116.42a1.11,1.11,0,0,0,.56-.36l-.57,1A.91.91,0,0,0,308.8,116.42Z"/><path class="cls-16" d="M308.79,117.1l.57-1a1.09,1.09,0,0,0,0,.66A.91.91,0,0,0,308.79,117.1Z"/><path class="cls-17" d="M306.62,112a1.1,1.1,0,0,0,.6.29l-1.19.05A.88.88,0,0,0,306.62,112Z"/><path class="cls-17" d="M306,112.29l1.19-.05a1,1,0,0,0-.57.34A.94.94,0,0,0,306,112.29Z"/></g><path class="cls-18" d="M558.8,57.27a92.11,92.11,0,0,0-170,47.79h0V281.13h.58L559.23,58C559.09,57.74,559,57.5,558.8,57.27Z"/><path class="cls-19" d="M572.49,105.66a91.73,91.73,0,0,0-13.82-47.1L388.81,281.72H572.53V105.66Z"/><line class="cls-2" x1="456.55" y1="142.29" x2="459" y2="144.14"/><rect class="cls-2" x="457.07" y="141.68" width="1.42" height="3.07" transform="translate(68.41 423.33) rotate(-53.1)"/><line class="cls-2" x1="447.69" y1="135.64" x2="452.69" y2="139.4"/><rect class="cls-2" x="449.48" y="134.39" width="1.42" height="6.25" transform="translate(69.93 414.98) rotate(-53.1)"/><line class="cls-2" x1="454.82" y1="141" x2="456" y2="141.88"/><rect class="cls-2" x="454.71" y="140.7" width="1.42" height="1.47" transform="translate(68.89 420.73) rotate(-53.1)"/><line class="cls-2" x1="453.22" y1="139.79" x2="454.39" y2="140.68"/><rect class="cls-2" x="453.1" y="139.5" width="1.42" height="1.47" transform="translate(69.21 418.96) rotate(-53.1)"/><line class="cls-2" x1="450.82" y1="156.55" x2="453.87" y2="156.92"/><rect class="cls-2" x="451.63" y="155.2" width="1.42" height="3.07" transform="translate(241.95 586.75) rotate(-83.04)"/><line class="cls-2" x1="448.68" y1="156.29" x2="450.14" y2="156.47"/><rect class="cls-2" x="448.7" y="155.64" width="1.42" height="1.47" transform="translate(239.69 583.51) rotate(-83.04)"/><line class="cls-2" x1="446.68" y1="156.05" x2="448.14" y2="156.23"/><rect class="cls-2" x="446.7" y="155.4" width="1.42" height="1.47" transform="translate(238.57 581.51) rotate(-83.09)"/><line class="cls-2" x1="452.98" y1="171.77" x2="455.81" y2="170.56"/><rect class="cls-2" x="452.86" y="170.45" width="3.07" height="1.42" transform="translate(-30.71 192.19) rotate(-23.12)"/><line class="cls-2" x1="442.79" y1="176.11" x2="448.54" y2="173.66"/><rect class="cls-2" x="442.54" y="174.18" width="6.26" height="1.42" transform="translate(-32.88 189.02) rotate(-23.12)"/><line class="cls-2" x1="451" y1="172.61" x2="452.36" y2="172.03"/><polygon class="cls-2" points="452.64 172.69 451.28 173.26 450.72 171.96 452.08 171.38 452.64 172.69"/><line class="cls-2" x1="449.15" y1="173.4" x2="450.51" y2="172.82"/><polygon class="cls-2" points="450.79 173.47 449.43 174.05 448.87 172.75 450.23 172.17 450.79 173.47"/><line class="cls-2" x1="460.09" y1="183.86" x2="461.94" y2="181.4"/><rect class="cls-2" x="459.48" y="181.92" width="3.07" height="1.42" transform="translate(38.18 441.67) rotate(-53.1)"/><line class="cls-2" x1="458.8" y1="185.58" x2="459.69" y2="184.4"/><rect class="cls-2" x="458.51" y="184.28" width="1.47" height="1.42" transform="translate(35.59 441.2) rotate(-53.1)"/><line class="cls-2" x1="457.55" y1="187.18" x2="458.43" y2="186.01"/><rect class="cls-2" x="457.25" y="185.89" width="1.47" height="1.42" transform="translate(33.8 440.83) rotate(-53.1)"/><line class="cls-2" x1="496.93" y1="135.19" x2="495.08" y2="137.65"/><rect class="cls-2" x="494.47" y="135.71" width="3.07" height="1.42" transform="translate(89.12 451.18) rotate(-53.1)"/><line class="cls-2" x1="498.22" y1="133.47" x2="497.34" y2="134.64"/><rect class="cls-2" x="497.04" y="133.35" width="1.47" height="1.42" transform="matrix(0.6, -0.8, 0.8, 0.6, 91.72, 451.66)"/><line class="cls-2" x1="499.43" y1="131.86" x2="498.54" y2="133.04"/><rect class="cls-2" x="498.25" y="131.74" width="1.47" height="1.42" transform="translate(93.49 451.98) rotate(-53.1)"/><line class="cls-2" x1="483.85" y1="130.65" x2="483.48" y2="133.69"/><rect class="cls-2" x="482.13" y="131.46" width="3.07" height="1.42" transform="translate(294.11 596.36) rotate(-83.07)"/><line class="cls-2" x1="485.18" y1="119.64" x2="484.43" y2="125.85"/><rect class="cls-2" x="481.68" y="122.04" width="6.26" height="1.42" transform="translate(304.46 589.21) rotate(-83.07)"/><line class="cls-2" x1="484.11" y1="128.51" x2="483.93" y2="129.97"/><polygon class="cls-2" points="484.64 130.06 483.23 129.88 483.41 128.42 484.81 128.59 484.64 130.06"/><line class="cls-2" x1="484.35" y1="126.51" x2="484.18" y2="127.97"/><polygon class="cls-2" points="484.88 128.06 483.47 127.89 483.65 126.42 485.06 126.59 484.88 128.06"/><line class="cls-2" x1="468.64" y1="132.81" x2="469.84" y2="135.64"/><polygon class="cls-2" points="470.5 135.36 469.19 135.91 467.99 133.09 469.29 132.53 470.5 135.36"/><line class="cls-2" x1="467.79" y1="130.83" x2="468.37" y2="132.18"/><rect class="cls-2" x="467.37" y="130.77" width="1.42" height="1.47" transform="translate(-14.03 194.5) rotate(-23.14)"/><line class="cls-2" x1="467" y1="128.98" x2="467.58" y2="130.33"/><rect class="cls-2" x="466.58" y="128.92" width="1.42" height="1.47" transform="matrix(0.92, -0.39, 0.39, 0.92, -13.36, 194.04)"/><path class="cls-2" d="M503.91,180.32a2.3,2.3,0,1,1,1.84-.92A2.31,2.31,0,0,1,503.91,180.32Zm0-2.28h0A0,0,0,0,0,503.94,178Z"/><path class="cls-2" d="M506.79,153.47a2.31,2.31,0,0,1-1.38-.46h0a2.3,2.3,0,1,1,1.38.46Zm0-2.28Z"/><path class="cls-2" d="M510.28,162.89a4.83,4.83,0,0,1-2.89,1.36l5.41.77A4,4,0,0,1,510.28,162.89Z"/><path class="cls-2" d="M512.8,165l-5.41-.77a4.82,4.82,0,0,1,2.39,2.11A4,4,0,0,1,512.8,165Z"/><path class="cls-2" d="M491.2,188.77a4.81,4.81,0,0,0,.49-3.15l2.26,5A4.05,4.05,0,0,0,491.2,188.77Z"/><path class="cls-2" d="M494,190.59l-2.26-5a4.9,4.9,0,0,0,2.7,1.71A4,4,0,0,0,494,190.59Z"/><path class="cls-20" d="M496.65,181.45a23.1,23.1,0,0,0-4.39-32.14l-27.69,36.95A23.1,23.1,0,0,0,496.65,181.45Z"/><path class="cls-21" d="M464.18,140.67A23.11,23.11,0,0,0,468.57,173l.25.18,28-36.74-.25-.2A23.11,23.11,0,0,0,464.18,140.67Z"/><path class="cls-2" d="M477.31,190.79a2.26,2.26,0,0,1-1.37-.46h0a2.29,2.29,0,1,1,1.37.46Zm0-2.28Z"/><path class="cls-22" d="M447.39,221.34h-5.15c0-.18,0-.36,0-.54a7.87,7.87,0,0,0-7.86-7.86h-6.29a7.85,7.85,0,0,0-6.88,11.65H407.59a9.12,9.12,0,0,0-9.1,9.1v1.1a9.12,9.12,0,0,0,9.1,9.1h23.48a9.12,9.12,0,0,0,8.8-6.83h7.52a7.86,7.86,0,1,0,0-15.72Z"/><path class="cls-22" d="M549.83,71.79H536.51A7.85,7.85,0,0,0,529,61.65H518.75a7.86,7.86,0,0,0,0,15.72h5.46a7.81,7.81,0,0,0-.34,2.28h0a7.89,7.89,0,0,0,7.86,7.86h18.1a7.88,7.88,0,0,0,7.86-7.86h0A7.88,7.88,0,0,0,549.83,71.79Z"/><path class="cls-23" d="M554.14,171.68h-5.79a9.42,9.42,0,0,0-9.35,8.5H520.94a9.28,9.28,0,0,0-9.26,9.25v.8a9.28,9.28,0,0,0,9.26,9.25h23.83A9.27,9.27,0,0,0,554,191h.16a9.41,9.41,0,0,0,9.39-9.39v-.52A9.41,9.41,0,0,0,554.14,171.68Z"/><rect class="cls-23" x="507.96" y="243.89" width="24.58" height="19.3" rx="6.36"/><path class="cls-23" d="M569.27,229.29a9.68,9.68,0,0,0-9.65,9.65h0a9.72,9.72,0,0,0,.42,2.82h-6.91a9.66,9.66,0,0,0,0,19.31h18.78V229.29Z"/><rect class="cls-22" x="403.58" y="153.4" width="24.58" height="19.3" rx="6.36"/><path class="cls-22" d="M409.48,107.11h-6.91a9.44,9.44,0,0,0,.43-2.82h0a9.68,9.68,0,0,0-9.66-9.65h-2.63v31.77h18.77a9.65,9.65,0,0,0,0-19.3Z"/><path class="cls-2" d="M582.12,292.21H379.75V101.59h.05a98.46,98.46,0,0,1,30.12-69.11A102,102,0,0,1,566.44,50.23a98.45,98.45,0,0,1,15.63,51.36h0Zm-201.61-.75H581.36V102.3l0-.32A97.7,97.7,0,0,0,565.8,50.64,101.26,101.26,0,0,0,410.45,33a97.75,97.75,0,0,0-29.91,69l0,1.54Z"/><path class="cls-2" d="M582.12,292.21H379.75V101.59h.05a98.46,98.46,0,0,1,30.12-69.11A102,102,0,0,1,566.44,50.23a98.45,98.45,0,0,1,15.63,51.36h0Zm-201.61-.75H581.36V102.3l0-.32A97.7,97.7,0,0,0,565.8,50.64,101.26,101.26,0,0,0,410.45,33a97.75,97.75,0,0,0-29.91,69l0,1.54Z"/><path class="cls-2" d="M573.13,281.75h-185V104.94h0a92.5,92.5,0,0,1,185,0h0ZM388.83,281H572.38l0-175.68a91.75,91.75,0,0,0-183.47,0l0,1.43Z"/><path class="cls-2" d="M480.61,184.09a23.48,23.48,0,1,1,23.47-23.47A23.5,23.5,0,0,1,480.61,184.09Zm0-46.19a22.72,22.72,0,1,0,22.72,22.72A22.74,22.74,0,0,0,480.61,137.9Z"/><path class="cls-2" d="M433.2,246.31H409.71a9.48,9.48,0,0,1-9.47-9.47v-1.11a9.49,9.49,0,0,1,9.47-9.48h13.05a8.07,8.07,0,0,1-.75-3.41,8.25,8.25,0,0,1,8.24-8.24h6.28a8.17,8.17,0,0,1,3,.59,8.3,8.3,0,0,1,5.21,7.65V223h4.75a8.24,8.24,0,0,1,0,16.47h-7.24A9.47,9.47,0,0,1,433.2,246.31ZM409.71,227a8.73,8.73,0,0,0-8.72,8.72v1.11a8.73,8.73,0,0,0,8.72,8.72H433.2a8.72,8.72,0,0,0,8.43-6.55l.07-.28h7.82a7.49,7.49,0,0,0,0-15H444l0-.49c0-.14,0-.28,0-.43a7.56,7.56,0,0,0-4.74-7,7.47,7.47,0,0,0-2.75-.53h-6.28a7.46,7.46,0,0,0-6.55,11.09l.31.56Z"/><path class="cls-2" d="M550.59,90.16h-18.1a8.22,8.22,0,0,1-8-10.15h-5a8.24,8.24,0,1,1,0-16.47h10.24a8.21,8.21,0,0,1,8,10.14h12.83a8.24,8.24,0,1,1,0,16.48ZM519.51,64.29a7.49,7.49,0,1,0,0,15h6l-.15.49a7.48,7.48,0,0,0,7.16,9.65h18.1a7.48,7.48,0,1,0,0-15H536.76l.15-.49a7.67,7.67,0,0,0,.32-2.18,7.49,7.49,0,0,0-7.48-7.48Z"/><path class="cls-2" d="M544.77,202.77H520.94a9.64,9.64,0,0,1-9.63-9.63v-.8a9.64,9.64,0,0,1,9.63-9.63h17.72a9.86,9.86,0,0,1,9.69-8.5h5.79a9.78,9.78,0,0,1,9.77,9.77v.52a9.78,9.78,0,0,1-9.58,9.77A9.68,9.68,0,0,1,544.77,202.77Zm-23.83-19.3a8.88,8.88,0,0,0-8.88,8.87v.8a8.89,8.89,0,0,0,8.88,8.88h23.83a8.93,8.93,0,0,0,8.84-8.16l0-.34h.5a9,9,0,0,0,9-9V184a9,9,0,0,0-9-9h-5.79a9.07,9.07,0,0,0-9,8.16l0,.34Z"/><path class="cls-2" d="M523.43,265.81h-8.49a8.43,8.43,0,0,1-8.42-8.42v-3.22a8.43,8.43,0,0,1,8.42-8.42h8.49a8.43,8.43,0,0,1,8.42,8.42v3.22A8.43,8.43,0,0,1,523.43,265.81Zm-8.49-19.3a7.67,7.67,0,0,0-7.66,7.66v3.22a7.67,7.67,0,0,0,7.66,7.66h8.49a7.68,7.68,0,0,0,7.67-7.66v-3.22a7.68,7.68,0,0,0-7.67-7.66Z"/><path class="cls-2" d="M572.75,263.37H554.69a10,10,0,0,1,0-20.06h6.41a10,10,0,0,1,9.72-12.47h2.64v.76h-2.64a9.26,9.26,0,0,0-8.86,12l.15.49h-7.42a9.28,9.28,0,1,0,0,18.55h18.06Z"/><polygon class="cls-2" points="389.42 281.72 388.81 281.26 558.62 57.97 559.23 58.43 389.42 281.72"/><path class="cls-2" d="M407.94,129.08H388.78V96.55h3A10,10,0,0,1,401.52,109h6.42a10,10,0,1,1,0,20.06Zm-18.4-.76h18.4a9.27,9.27,0,0,0,0-18.54h-7.43l.15-.49a9.26,9.26,0,0,0-8.86-12h-2.26Z"/><path class="cls-2" d="M421.45,174.76H413a8.44,8.44,0,0,1-8.43-8.43v-3.21A8.44,8.44,0,0,1,413,154.7h8.48a8.44,8.44,0,0,1,8.43,8.42v3.21A8.44,8.44,0,0,1,421.45,174.76ZM413,155.45a7.68,7.68,0,0,0-7.67,7.67v3.21A7.68,7.68,0,0,0,413,174h8.48a7.68,7.68,0,0,0,7.67-7.67v-3.21a7.68,7.68,0,0,0-7.67-7.67Z"/><path class="cls-2" d="M320.67,96.82h3.25a10.74,10.74,0,0,1,2.59.28,4.49,4.49,0,0,1,1.8.9,4.72,4.72,0,0,1,1.25,1.62,4.9,4.9,0,0,1,.41,2,5,5,0,0,1-.37,1.94,4.53,4.53,0,0,1-1.09,1.58,5.14,5.14,0,0,1-1.78,1.06,6.94,6.94,0,0,1-2.42.39h-3.64Zm1.64,9.06h1.75a4.43,4.43,0,0,0,1.55-.27,3.73,3.73,0,0,0,1.27-.81,3.87,3.87,0,0,0,.86-1.33,5,5,0,0,0,.31-1.81,4.42,4.42,0,0,0-.3-1.66,3.83,3.83,0,0,0-.82-1.31,3.76,3.76,0,0,0-1.26-.84,4.23,4.23,0,0,0-1.61-.3h-1.75Z"/><path class="cls-2" d="M336.88,106.59a1.33,1.33,0,0,1-.5-.41,1,1,0,0,1-.2-.62c-.18.13-.35.27-.52.41a3.12,3.12,0,0,1-.56.39,2.79,2.79,0,0,1-.66.28,2.67,2.67,0,0,1-.84.11,2,2,0,0,1-.8-.14,1.82,1.82,0,0,1-.61-.39,1.86,1.86,0,0,1-.38-.6,2,2,0,0,1-.14-.74,1.93,1.93,0,0,1,.2-.88,2.32,2.32,0,0,1,.52-.7,4.14,4.14,0,0,1,.78-.54,8.12,8.12,0,0,1,.94-.43c.34-.12.68-.24,1-.33l1-.28v-.47a4.3,4.3,0,0,0-.08-.87,1.48,1.48,0,0,0-.23-.57.85.85,0,0,0-.39-.31,1.62,1.62,0,0,0-.57-.09,1.37,1.37,0,0,0-.58.12,1.62,1.62,0,0,0-.47.34,1.51,1.51,0,0,0-.33.49,2.08,2.08,0,0,0-.18.6H332a1.83,1.83,0,0,1,.34-.87,2.35,2.35,0,0,1,.69-.64,3.46,3.46,0,0,1,1-.4,4.44,4.44,0,0,1,1.11-.14,4.87,4.87,0,0,1,1.24.14,2.22,2.22,0,0,1,.8.4,1.58,1.58,0,0,1,.43.63,2.45,2.45,0,0,1,.13.83v4.65a1,1,0,0,0,.2.62,1.41,1.41,0,0,0,.5.41Zm-.7-4.39-.68.24c-.23.09-.45.19-.67.3s-.44.23-.64.35a3.27,3.27,0,0,0-.53.42,1.92,1.92,0,0,0-.36.46,1,1,0,0,0-.13.51,1.35,1.35,0,0,0,.1.53,1.73,1.73,0,0,0,.27.43,1.24,1.24,0,0,0,.4.29.88.88,0,0,0,.45.11,1.86,1.86,0,0,0,.48-.06,2.44,2.44,0,0,0,.44-.19,2.73,2.73,0,0,0,.43-.26l.44-.31Z"/><path class="cls-2" d="M339.55,108.38l.2.09.23.12.28.09a1.9,1.9,0,0,0,.35,0,.76.76,0,0,0,.44-.13,2,2,0,0,0,.38-.33,3.3,3.3,0,0,0,.3-.43,4.6,4.6,0,0,0,.22-.45l.51-1.13-3.85-7.19h1.7l2.9,5.45,2.38-5.45h.8l-3.85,8.87a4.41,4.41,0,0,1-.56,1,3.5,3.5,0,0,1-.66.67,2.73,2.73,0,0,1-.73.39,2.17,2.17,0,0,1-.73.13,1.82,1.82,0,0,1-.52-.08,2.06,2.06,0,0,1-.42-.21Z"/><line class="cls-3" x1="309.54" y1="111.78" x2="379.23" y2="111.78"/><rect class="cls-2" x="311.7" y="106.53" width="0.25" height="0.55"/><rect class="cls-2" x="311.7" y="104.55" width="0.25" height="1.12"/><rect class="cls-2" x="311.7" y="106.14" width="0.25" height="0.26"/><rect class="cls-2" x="311.7" y="105.78" width="0.25" height="0.26"/><line class="cls-2" x1="309.18" y1="107.24" x2="309.45" y2="107.71"/><rect class="cls-2" x="309.19" y="107.2" width="0.25" height="0.55" transform="translate(-12.36 168.7) rotate(-29.94)"/><line class="cls-2" x1="308.99" y1="106.9" x2="309.12" y2="107.13"/><rect class="cls-2" x="308.93" y="106.89" width="0.25" height="0.26" transform="translate(-12.18 168.48) rotate(-29.93)"/><line class="cls-2" x1="308.81" y1="106.59" x2="308.94" y2="106.82"/><rect class="cls-2" x="308.75" y="106.58" width="0.25" height="0.26" transform="translate(-11.99 168.65) rotate(-29.99)"/><line class="cls-2" x1="307.24" y1="109.18" x2="307.71" y2="109.45"/><rect class="cls-2" x="307.35" y="109.04" width="0.25" height="0.55" transform="translate(59.14 321.02) rotate(-60.02)"/><line class="cls-2" x1="305.53" y1="108.19" x2="306.49" y2="108.75"/><rect class="cls-2" x="305.88" y="107.91" width="0.25" height="1.12" transform="translate(59.12 319.3) rotate(-60.01)"/><line class="cls-2" x1="306.91" y1="108.99" x2="307.13" y2="109.12"/><polygon class="cls-2" points="307.07 109.23 306.84 109.09 306.97 108.88 307.2 109.01 307.07 109.23"/><line class="cls-2" x1="306.6" y1="108.81" x2="306.82" y2="108.94"/><polygon class="cls-2" points="306.76 109.05 306.53 108.92 306.66 108.7 306.89 108.83 306.76 109.05"/><line class="cls-2" x1="306.64" y1="111.83" x2="307.19" y2="111.83"/><rect class="cls-2" x="306.64" y="111.7" width="0.55" height="0.25"/><line class="cls-2" x1="306.26" y1="111.83" x2="306.52" y2="111.83"/><rect class="cls-2" x="306.26" y="111.7" width="0.26" height="0.25"/><line class="cls-2" x1="305.9" y1="111.83" x2="306.16" y2="111.83"/><rect class="cls-2" x="305.9" y="111.7" width="0.26" height="0.25"/><line class="cls-2" x1="316.42" y1="109.18" x2="315.95" y2="109.45"/><rect class="cls-2" x="315.91" y="109.19" width="0.55" height="0.25" transform="translate(-12.33 172.55) rotate(-29.97)"/><line class="cls-2" x1="318.14" y1="108.19" x2="317.17" y2="108.75"/><rect class="cls-2" x="317.09" y="108.34" width="1.12" height="0.25" transform="translate(-11.71 173.17) rotate(-29.97)"/><line class="cls-2" x1="316.75" y1="108.99" x2="316.53" y2="109.12"/><polygon class="cls-2" points="316.59 109.23 316.46 109.01 316.69 108.88 316.82 109.09 316.59 109.23"/><line class="cls-2" x1="317.07" y1="108.81" x2="316.84" y2="108.94"/><polygon class="cls-2" points="316.9 109.05 316.77 108.83 317 108.7 317.13 108.92 316.9 109.05"/><line class="cls-2" x1="314.48" y1="107.24" x2="314.21" y2="107.71"/><polygon class="cls-2" points="314.32 107.78 314.1 107.65 314.37 107.17 314.59 107.3 314.32 107.78"/><line class="cls-2" x1="314.67" y1="106.9" x2="314.54" y2="107.13"/><rect class="cls-2" x="314.48" y="106.89" width="0.26" height="0.25" transform="translate(64.75 326.11) rotate(-60.03)"/><line class="cls-2" x1="314.85" y1="106.59" x2="314.72" y2="106.82"/><rect class="cls-2" x="314.66" y="106.58" width="0.26" height="0.25" transform="translate(65.11 326.11) rotate(-60.03)"/><path class="cls-2" d="M311.83,107.78a4.05,4.05,0,0,0-4,4s0,.08,0,.12h8.06s0-.08,0-.12A4.05,4.05,0,0,0,311.83,107.78Z"/><g class="cls-24"><path class="cls-25" d="M640.31,248h-3.25a10.26,10.26,0,0,1-2.59-.28,4.6,4.6,0,0,1-1.81-.9,4.69,4.69,0,0,1-1.24-1.62,4.9,4.9,0,0,1-.41-2,5,5,0,0,1,.37-1.93,4.47,4.47,0,0,1,1.09-1.59,5.3,5.3,0,0,1,1.78-1.06,6.92,6.92,0,0,1,2.41-.39h3.65Zm-1.64-9.06h-1.75a4.18,4.18,0,0,0-1.55.28,3.45,3.45,0,0,0-1.27.81,3.92,3.92,0,0,0-.86,1.32,4.85,4.85,0,0,0-.31,1.82,4.71,4.71,0,0,0,.29,1.66,4.07,4.07,0,0,0,.83,1.3,3.67,3.67,0,0,0,1.26.84,4.05,4.05,0,0,0,1.61.31h1.75Z"/><path class="cls-26" d="M624.1,238.23a1.36,1.36,0,0,1,.5.42,1,1,0,0,1,.2.61c.18-.13.35-.27.52-.41a5.44,5.44,0,0,1,.55-.39,3.37,3.37,0,0,1,.67-.28,2.67,2.67,0,0,1,.84-.11,2.24,2.24,0,0,1,.8.14,1.85,1.85,0,0,1,.61.4,1.71,1.71,0,0,1,.38.59,2,2,0,0,1,.13.75,1.92,1.92,0,0,1-.19.87,2.21,2.21,0,0,1-.52.7,4.49,4.49,0,0,1-.78.54,7.3,7.3,0,0,1-.94.43c-.34.13-.68.24-1,.34l-1,.27v.47a4.3,4.3,0,0,0,.08.87,1.36,1.36,0,0,0,.23.57.79.79,0,0,0,.39.31,1.62,1.62,0,0,0,.57.09,1.37,1.37,0,0,0,.58-.12,1.62,1.62,0,0,0,.47-.34,1.51,1.51,0,0,0,.33-.49,2.08,2.08,0,0,0,.18-.6H629a1.94,1.94,0,0,1-.34.87,2.39,2.39,0,0,1-.7.64,3.13,3.13,0,0,1-1,.4,4.12,4.12,0,0,1-1.11.14,4.46,4.46,0,0,1-1.24-.14,2.22,2.22,0,0,1-.8-.4,1.45,1.45,0,0,1-.43-.63,2.39,2.39,0,0,1-.13-.82v-4.66a1,1,0,0,0-.2-.61,1.44,1.44,0,0,0-.5-.42Zm.7,4.39.67-.23c.23-.09.46-.19.68-.3s.43-.23.64-.36a4.62,4.62,0,0,0,.53-.41,2.18,2.18,0,0,0,.36-.47,1,1,0,0,0,.13-.51,1.3,1.3,0,0,0-.1-.52,1.44,1.44,0,0,0-.28-.44,1.24,1.24,0,0,0-.39-.29,1,1,0,0,0-.45-.11,1.51,1.51,0,0,0-.48.07,1.85,1.85,0,0,0-.44.18,2.73,2.73,0,0,0-.43.26c-.14.1-.29.2-.44.32Z"/><path class="cls-27" d="M621.43,236.45l-.2-.1-.23-.11-.29-.1a1.72,1.72,0,0,0-.34,0,.76.76,0,0,0-.44.13,1.7,1.7,0,0,0-.38.33,2.83,2.83,0,0,0-.3.44,3.61,3.61,0,0,0-.22.44l-.51,1.13,3.85,7.19h-1.7l-2.9-5.45-2.38,5.45h-.81l3.86-8.87a5,5,0,0,1,.55-1,3.54,3.54,0,0,1,.67-.67,2.77,2.77,0,0,1,.73-.4,2.39,2.39,0,0,1,.73-.13,1.82,1.82,0,0,1,.52.08,1.67,1.67,0,0,1,.42.22Z"/><line class="cls-28" x1="651.44" y1="233.05" x2="581.75" y2="233.05"/><line class="cls-29" x1="649.15" y1="238.3" x2="649.15" y2="237.75"/><rect class="cls-30" x="649.02" y="237.75" width="0.25" height="0.55"/><line class="cls-31" x1="649.15" y1="240.28" x2="649.15" y2="239.16"/><rect class="cls-32" x="649.02" y="239.16" width="0.25" height="1.12"/><line class="cls-33" x1="649.15" y1="238.68" x2="649.15" y2="238.42"/><rect class="cls-34" x="649.02" y="238.42" width="0.25" height="0.26"/><line class="cls-35" x1="649.15" y1="239.04" x2="649.15" y2="238.78"/><rect class="cls-36" x="649.02" y="238.78" width="0.25" height="0.26"/><line class="cls-37" x1="651.8" y1="237.59" x2="651.52" y2="237.11"/><rect class="cls-38" x="651.53" y="237.07" width="0.25" height="0.55" transform="translate(-31.5 356.88) rotate(-29.94)"/><line class="cls-39" x1="651.99" y1="237.92" x2="651.86" y2="237.69"/><rect class="cls-40" x="651.8" y="237.67" width="0.25" height="0.26" transform="translate(-31.7 357.01) rotate(-29.93)"/><line class="cls-41" x1="652.17" y1="238.23" x2="652.04" y2="238"/><rect class="cls-42" x="651.98" y="237.99" width="0.25" height="0.26" transform="translate(-31.72 357.78) rotate(-29.99)"/><line class="cls-43" x1="653.74" y1="235.65" x2="653.26" y2="235.37"/><rect class="cls-44" x="653.37" y="235.23" width="0.25" height="0.55" transform="translate(122.94 683.87) rotate(-60.02)"/><line class="cls-45" x1="655.45" y1="236.64" x2="654.49" y2="236.08"/><rect class="cls-46" x="654.84" y="235.8" width="0.25" height="1.12" transform="translate(122.9 685.52) rotate(-60.01)"/><line class="cls-47" x1="654.07" y1="235.84" x2="653.84" y2="235.71"/><polygon class="cls-47" points="653.91 235.6 654.13 235.73 654.01 235.95 653.78 235.82 653.91 235.6"/><line class="cls-48" x1="654.38" y1="236.02" x2="654.16" y2="235.89"/><polygon class="cls-48" points="654.22 235.78 654.45 235.91 654.32 236.13 654.09 236 654.22 235.78"/><line class="cls-49" x1="654.34" y1="233" x2="653.79" y2="233"/><rect class="cls-50" x="653.79" y="232.87" width="0.55" height="0.25"/><line class="cls-51" x1="654.72" y1="233" x2="654.46" y2="233"/><rect class="cls-52" x="654.46" y="232.87" width="0.26" height="0.25"/><line class="cls-53" x1="655.08" y1="233" x2="654.82" y2="233"/><rect class="cls-53" x="654.82" y="232.87" width="0.26" height="0.25"/><line class="cls-54" x1="644.56" y1="235.65" x2="645.03" y2="235.37"/><rect class="cls-55" x="644.52" y="235.38" width="0.55" height="0.25" transform="translate(-31.44 353.56) rotate(-29.97)"/><line class="cls-56" x1="642.84" y1="236.64" x2="643.81" y2="236.08"/><rect class="cls-57" x="642.77" y="236.23" width="1.12" height="0.25" transform="translate(-32.06 352.94) rotate(-29.97)"/><line class="cls-58" x1="644.22" y1="235.84" x2="644.45" y2="235.71"/><polygon class="cls-59" points="644.39 235.6 644.51 235.82 644.29 235.95 644.16 235.73 644.39 235.6"/><line class="cls-60" x1="643.91" y1="236.02" x2="644.14" y2="235.89"/><polygon class="cls-61" points="644.08 235.78 644.2 236 643.98 236.13 643.85 235.91 644.08 235.78"/><line class="cls-62" x1="646.5" y1="237.59" x2="646.77" y2="237.11"/><polygon class="cls-63" points="646.66 237.05 646.88 237.18 646.61 237.65 646.39 237.52 646.66 237.05"/><line class="cls-64" x1="646.3" y1="237.92" x2="646.44" y2="237.69"/><rect class="cls-65" x="646.24" y="237.68" width="0.26" height="0.25" transform="translate(117.5 678.98) rotate(-60.03)"/><line class="cls-66" x1="646.13" y1="238.23" x2="646.26" y2="238"/><rect class="cls-67" x="646.06" y="237.99" width="0.26" height="0.25" transform="translate(117.14 678.98) rotate(-60.03)"/><path class="cls-68" d="M649.15,237a4,4,0,0,0,4-4c0-.05,0-.09,0-.13h-8.06s0,.08,0,.13A4,4,0,0,0,649.15,237Z"/></g><path class="cls-69" d="M565.93,50.18A101.26,101.26,0,0,0,410.58,32.57a97.75,97.75,0,0,0-29.91,69l0,1.54V291H581.49V101.85l0-.32A97.76,97.76,0,0,0,565.93,50.18Z"/></svg>