<svg id="Layer_1" data-name="Layer 1" xmlns="http://www.w3.org/2000/svg" viewBox="0 0 960 32.72"><defs><style>.cls-1{fill:#2a2465;}</style></defs><title>introduce_article05</title><path class="cls-1" d="M193.81,7.77v18h-1.65V16h-3.9c-.16,3.53-1.94,5.73-4.44,5.73s-4.48-2.44-4.48-6.27,1.86-6.26,4.48-6.26c2.42,0,4.18,2.1,4.44,5.46h3.9V7.77Zm-7.09,7.64c0-2.9-1.2-4.78-2.9-4.78s-2.92,1.88-2.92,4.78,1.2,4.81,2.92,4.81S186.72,18.33,186.72,15.41Z"/><path class="cls-1" d="M213.05,15.77v1.3H196.8v-1.3ZM201,9.59h-2.72V8.33h13.16V9.59h-2.7V13h2.64v1.26h-13V13H201Zm-.62,14.69H211.5v1.24H198.82v-4.1h10.52V19.87H198.76V18.65H211v4H200.42Zm6.72-14.69h-4.46V13h4.46Z"/><path class="cls-1" d="M224.26,16.67a7.27,7.27,0,0,1-4.32-3.94,7.49,7.49,0,0,1-4.48,4.36l-.86-1.3A6.22,6.22,0,0,0,219.08,10V8.35h1.62V10a6,6,0,0,0,4.4,5.38Zm5.82,7.51v1.3h-12.2V21h9.9V19.25h-9.94V18H229.4v4.31h-9.9v1.92Zm-2.34-11.81h-3.9V11h3.9V7.79h1.66v9.26h-1.66Z"/><path class="cls-1" d="M239,13.57a8.05,8.05,0,0,0,4.7,7.08l-.9,1.29a9,9,0,0,1-4.58-5.25,9.28,9.28,0,0,1-4.56,5.55L232.76,21a8.47,8.47,0,0,0,4.64-7.43V12.19h-4.16V10.87h4.14V8.09H239v2.78h4.08v1.32H239Zm8.1-5.82v18h-1.66V7.75Z"/><path class="cls-1" d="M261.56,19.72,266.28,18l3-1.12v-.08l-3-1.12-4.72-1.74v-1.6l9.58,3.76v1.48l-9.58,3.77Z"/><path class="cls-1" d="M284.94,9.55h4.6c3,0,5.12,1.08,5.12,4.14a4,4,0,0,1-3.32,4.13l3.76,6.42H293L289.44,18H286.8v6.23h-1.86Zm4.32,7c2.3,0,3.56-.92,3.56-2.82s-1.26-2.62-3.56-2.62H286.8v5.44Z"/><path class="cls-1" d="M296.22,16.85c0-4.7,2.58-7.56,6.26-7.56s6.26,2.86,6.26,7.56-2.58,7.65-6.26,7.65S296.22,21.56,296.22,16.85Zm10.62,0c0-3.68-1.74-5.94-4.36-5.94s-4.36,2.26-4.36,5.94,1.72,6,4.36,6S306.84,20.52,306.84,16.85Z"/><path class="cls-1" d="M310.46,16.85c0-4.7,2.58-7.56,6.26-7.56S323,12.15,323,16.85s-2.58,7.65-6.26,7.65S310.46,21.56,310.46,16.85Zm10.62,0c0-3.68-1.74-5.94-4.36-5.94s-4.36,2.26-4.36,5.94,1.72,6,4.36,6S321.08,20.52,321.08,16.85Z"/><path class="cls-1" d="M325.54,9.55h2.24l2.82,7.86c.34,1,.68,2,1,3.07h.1c.34-1,.66-2,1-3.07l2.8-7.86h2.24V24.24H336V16.11c0-1.26.14-3,.24-4.32h-.08L335,15.13l-2.78,7.63H331l-2.78-7.63-1.16-3.34H327c.08,1.28.22,3.06.22,4.32v8.13h-1.68Z"/><path class="cls-1" d="M349.22,18h-8.08V9h1.62v3.16h4.84V9h1.62v3.86h4.14V7.77H355V21.06h-1.66V14.17h-4.14Zm-1.62-4.56h-4.84v3.24h4.84ZM355.44,24v1.34h-12V19.75h1.64V24Z"/><path class="cls-1" d="M374.3,22.28v1.34H358V22.28h7.3V19.75c-3.16-.18-5.08-1.39-5.08-3.4,0-2.16,2.26-3.4,5.9-3.4s5.84,1.24,5.84,3.4c0,2-1.9,3.21-5,3.4v2.53Zm-.9-10.55H358.84V10.39h6.5V8.05H367v2.34h6.42Zm-7.24,6.76c2.58,0,4.18-.8,4.18-2.14s-1.6-2.12-4.18-2.12-4.24.8-4.24,2.12S363.54,18.49,366.16,18.49Z"/><path class="cls-1" d="M390.62,12.75c0,2.48-2,4.14-4.7,4.14s-4.66-1.66-4.66-4.14,2-4.12,4.66-4.12S390.62,10.31,390.62,12.75Zm-7.76,0A3.1,3.1,0,1,0,385.92,10,2.81,2.81,0,0,0,382.86,12.75Zm2.76,5.54v2.2h8.32v-2.2h1.62v7.19H384V18.29Zm0,5.87h8.32V21.78h-8.32Zm9.94-16.37v9.62h-1.64V7.79Z"/><path class="cls-1" d="M408.28,17.55a41.41,41.41,0,0,1-7.6.44H399.4V12.67h6.08V10.19h-6.14V8.85h7.74v5.08H401v2.72a40.52,40.52,0,0,0,7.12-.42Zm-6.88,2.23h12v6h-1.66V21.11H401.4Zm12-12v11h-1.66V15.49h-3.5V14.17h3.5v-2.4h-3.5V10.43h3.5V7.79Z"/><path class="cls-1" d="M427.78,19.72,432.5,18l3-1.12v-.08l-3-1.12-4.72-1.74v-1.6l9.58,3.76v1.48l-9.58,3.77Z"/><path class="cls-1" d="M456.58,12.55a9,9,0,0,0,4.8,7.79l-1,1.32A9.79,9.79,0,0,1,455.78,16a10,10,0,0,1-4.64,6l-1-1.35a9.41,9.41,0,0,0,4.82-8.1V9.33h1.62Zm8.32-4.78v18h-1.64v-18Z"/><path class="cls-1" d="M477.14,9.17c0,4.64-3.26,8-8.42,9.66l-.66-1.3c4.22-1.32,7-3.86,7.32-7h-6.6V9.17ZM472.4,24h10.32v1.34h-12V19.56h1.64Zm12.18-10.75v1.36h-2.64V20.9H480.3V7.79h1.64v5.44Z"/><path class="cls-1" d="M491,8.35h1.32l-6,19.47H485Z"/><path class="cls-1" d="M503.7,15.17a41.59,41.59,0,0,1-8.36.78h-1.4V8.55h1.62v6a40.28,40.28,0,0,0,7.92-.8Zm-6.44,9h10.38v1.32h-12V20.84h9.72V19h-9.78V17.67H507V22.1h-9.72Zm12.38-12.67v1.36H507v4h-1.64v-9H507v3.72Z"/><path class="cls-1" d="M520.06,13.39c0,2.4.62,5.51,2.8,7.06l-1,1.19a7.39,7.39,0,0,1-2.58-4.31,7.4,7.4,0,0,1-2.54,4.49,7.4,7.4,0,0,1-2.56-4.53,7.6,7.6,0,0,1-2.5,4.31l-1.06-1.15c2.18-1.59,2.8-4.74,2.8-7.06v-4H515v4a10.48,10.48,0,0,0,1.78,6.3c1.42-1.76,1.76-4.36,1.76-6.3v-4h1.56Zm5.72-5.6V25.72h-1.64V7.79Z"/><path class="cls-1" d="M543.3,16.67A7.27,7.27,0,0,1,539,12.73a7.49,7.49,0,0,1-4.48,4.36l-.86-1.3A6.22,6.22,0,0,0,538.12,10V8.35h1.62V10a6,6,0,0,0,4.4,5.38Zm5.82,7.51v1.3h-12.2V21h9.9V19.25h-9.94V18h11.56v4.31h-9.9v1.92Zm-2.34-11.81h-3.9V11h3.9V7.79h1.66v9.26h-1.66Z"/><path class="cls-1" d="M561.22,17.79a7.37,7.37,0,0,1-4.32-4,7.81,7.81,0,0,1-4.52,4.57L551.52,17A6.61,6.61,0,0,0,556,11v-.62h-4V9.09h9.58v1.32h-3.94V11A6.18,6.18,0,0,0,562,16.51Zm5.08,4.59c0,2.12-2.3,3.34-6,3.34s-6-1.22-6-3.34,2.3-3.35,6-3.35S566.3,20.26,566.3,22.38Zm-1.64,0c0-1.31-1.64-2.08-4.34-2.08s-4.34.77-4.34,2.08,1.64,2.06,4.34,2.06S564.66,23.68,564.66,22.38Zm-.08-9.95V7.79h1.66V18.48h-1.66V13.77H561V12.43Z"/><path class="cls-1" d="M580.6,19.72,585.32,18l3-1.12v-.08l-3-1.12-4.72-1.74v-1.6l9.58,3.76v1.48l-9.58,3.77Z"/><path class="cls-1" d="M612.68,16.67a7.27,7.27,0,0,1-4.32-3.94,7.49,7.49,0,0,1-4.48,4.36l-.86-1.3A6.22,6.22,0,0,0,607.5,10V8.35h1.62V10a6,6,0,0,0,4.4,5.38Zm5.82,7.51v1.3H606.3V21h9.9V19.25h-9.94V18h11.56v4.31h-9.9v1.92Zm-2.34-11.81h-3.9V11h3.9V7.79h1.66v9.26h-1.66Z"/><path class="cls-1" d="M630.6,17.79a7.37,7.37,0,0,1-4.32-4,7.81,7.81,0,0,1-4.52,4.57L620.9,17a6.61,6.61,0,0,0,4.52-6v-.62h-4V9.09H631v1.32h-3.94V11a6.18,6.18,0,0,0,4.36,5.48Zm5.08,4.59c0,2.12-2.3,3.34-6,3.34s-6-1.22-6-3.34S626,19,629.7,19,635.68,20.26,635.68,22.38Zm-1.64,0c0-1.31-1.64-2.08-4.34-2.08s-4.34.77-4.34,2.08,1.64,2.06,4.34,2.06S634,23.68,634,22.38ZM634,12.43V7.79h1.66V18.48H634V13.77h-3.54V12.43Z"/><path class="cls-1" d="M648.4,17.82a7.48,7.48,0,0,1-4.34-4.07,7.64,7.64,0,0,1-4.5,4.49l-.86-1.31a6.52,6.52,0,0,0,4.52-5.88v-.72h-4V9h9.58v1.34h-3.94v.72a6.18,6.18,0,0,0,4.36,5.48Zm-7,1.67h12v6.25h-1.66V20.82H641.42Zm12-11.72V18.51h-1.66V13.79h-3.5V12.45h3.5V7.77Z"/><path class="cls-1" d="M672.66,16.65V18H656.42V16.65h4V14.13c-1.42-.58-2.2-1.48-2.2-2.7,0-2.1,2.42-3.34,6.3-3.34s6.3,1.24,6.3,3.34a3,3,0,0,1-2.18,2.68v2.54Zm-2,5.87c0,2.06-2.28,3.18-6.14,3.18s-6.14-1.12-6.14-3.18,2.3-3.2,6.14-3.2S670.68,20.45,670.68,22.52Zm-6.14-9c2.86,0,4.62-.78,4.62-2.06s-1.76-2.06-4.62-2.06-4.62.76-4.62,2.06S661.68,13.49,664.54,13.49Zm4.48,9c0-1.22-1.68-1.92-4.48-1.92s-4.48.7-4.48,1.92,1.66,1.92,4.48,1.92S669,23.74,669,22.52Zm-7-5.87h5v-2.1a15.63,15.63,0,0,1-2.5.2,15.57,15.57,0,0,1-2.48-.2Z"/><path class="cls-1" d="M685.58,19.72,690.3,18l3-1.12v-.08l-3-1.12-4.72-1.74v-1.6l9.58,3.76v1.48l-9.58,3.77Z"/><path class="cls-1" d="M710.26,20.06a28,28,0,0,0,6-.46l.14,1.34a31.43,31.43,0,0,1-6.54.46h-1.16V9.91h6.68v1.34h-5.1v3.52h4.26v1.3h-4.26Zm7.82-11.85h1.54V24.8h-1.54V15.91H715.5V14.57h2.58Zm5.16-.46v18h-1.56V7.75Z"/><path class="cls-1" d="M726.54,9.57h8.22V21.15h-8.22Zm1.6,10.26h5V10.89h-5Zm14.44-3.52h-3v9.41H738V7.79h1.64v7.14h3Z"/><path class="cls-1" d="M753.26,16.67a7.27,7.27,0,0,1-4.32-3.94,7.49,7.49,0,0,1-4.48,4.36l-.86-1.3A6.22,6.22,0,0,0,748.08,10V8.35h1.62V10a6,6,0,0,0,4.4,5.38Zm5.82,7.51v1.3h-12.2V21h9.9V19.25h-9.94V18H758.4v4.31h-9.9v1.92Zm-2.34-11.81h-3.9V11h3.9V7.79h1.66v9.26h-1.66Z"/><path class="cls-1" d="M771.18,17.79a7.37,7.37,0,0,1-4.32-4,7.81,7.81,0,0,1-4.52,4.57L761.48,17A6.61,6.61,0,0,0,766,11v-.62h-4V9.09h9.58v1.32h-3.94V11A6.18,6.18,0,0,0,772,16.51Zm5.08,4.59c0,2.12-2.3,3.34-6,3.34s-6-1.22-6-3.34,2.3-3.35,6-3.35S776.26,20.26,776.26,22.38Zm-1.64,0c0-1.31-1.64-2.08-4.34-2.08s-4.34.77-4.34,2.08,1.64,2.06,4.34,2.06S774.62,23.68,774.62,22.38Zm-.08-9.95V7.79h1.66V18.48h-1.66V13.77H771V12.43Z"/></svg>