<svg id="Layer_1" data-name="Layer 1" xmlns="http://www.w3.org/2000/svg" viewBox="0 0 72.11 34.36"><defs><style>.cls-1,.cls-2,.cls-3{fill:#2a2465;}.cls-2{stroke:#2a2465;stroke-miterlimit:10;stroke-width:0.25px;}.cls-3{opacity:0.64;}</style></defs><title>logo_01</title><path class="cls-1" d="M43.17,38.68h0l.11,0Z" transform="translate(-1.99 -22.76)"/><path class="cls-1" d="M64.43,41.14V32.63l-3.65-.33h0c-.16,0-.24.07-.24.22a.2.2,0,0,0,.06.14.19.19,0,0,0,.16.07l1.33.14v2.38h-5V32.63l-3.64-.33h0c-.16,0-.24.07-.24.22a.2.2,0,0,0,.06.14.19.19,0,0,0,.16.07l1.33.14V43.38a3.17,3.17,0,0,0,2-1.23h5.31v1.23C64.51,42.79,64.43,41.14,64.43,41.14Zm-2.36-1.59v1.77h-5c0-.11,0-.18,0-.18V36.08h5Z" transform="translate(-1.99 -22.76)"/><path class="cls-1" d="M49.23,34.66a12.37,12.37,0,0,1-3,.82,21.62,21.62,0,0,1-2.49.23h-.9c-1.63,0-2,0-2,0V29.12c0-.39,0-.76,0-.76-.23-.77-.71-.93-1-1H37.52c-.16,0-.24.09-.24.26s.08.26.24.26h.92V36a2,2,0,0,0,.12.51,1,1,0,0,0,.29.35,1,1,0,0,0,.56.14h3a18.71,18.71,0,0,0,3.11-.24,16.9,16.9,0,0,0,2.57-.65,12.15,12.15,0,0,0,2.08-.91c.36-.21.7-.41,1-.62v-1A15,15,0,0,1,49.23,34.66Z" transform="translate(-1.99 -22.76)"/><path class="cls-1" d="M53.55,30.75h3.68a1.77,1.77,0,0,0-.49-1.27,1.61,1.61,0,0,0-1.2-.53,1.59,1.59,0,0,0-.88.26,1.65,1.65,0,0,0-.62.69h-.49V25.36L49.91,25h0c-.16,0-.24.08-.24.25a.25.25,0,0,0,.06.16.21.21,0,0,0,.16.08l1.33.15V37.46c2.45-.66,2.36-2.52,2.36-2.52Z" transform="translate(-1.99 -22.76)"/><path class="cls-1" d="M70.42,36.55H74.1a1.81,1.81,0,0,0-.49-1.28A1.66,1.66,0,0,0,71.53,35a1.74,1.74,0,0,0-.62.7h-.49V31.15l-3.64-.37h0c-.16,0-.24.09-.24.26a.24.24,0,0,0,.06.15.17.17,0,0,0,.16.08l1.33.16V43.26c2.45-.67,2.36-2.52,2.36-2.52Z" transform="translate(-1.99 -22.76)"/><path class="cls-1" d="M72.19,51.21a.44.44,0,0,0-.29-.11l-1-.26v-5.5a.82.82,0,0,0-.21-.52,1.36,1.36,0,0,0-.25-.22,1.94,1.94,0,0,0-1.12-.32,2.18,2.18,0,0,0-.82.16,1.28,1.28,0,0,0-.54.38H60l-2.34-.21-1.28-.12h0a.21.21,0,0,0-.24.23v0h0a.18.18,0,0,0,.06.13.19.19,0,0,0,.16.07l1.33.14V53a3.27,3.27,0,0,0,1.92-1.09H71.9a.4.4,0,0,0,.29-.12.44.44,0,0,0,.12-.3A.38.38,0,0,0,72.19,51.21Zm-4.08-.11H60a1.55,1.55,0,0,0,0-.29V45.65h8.09Z" transform="translate(-1.99 -22.76)"/><path class="cls-1" d="M53.32,44.35a1.83,1.83,0,0,0-.68-.89l-.87-.59c-.46-.32-1-.66-1.51-1s-1.11-.72-1.65-1.06a11.53,11.53,0,0,0-1-.61,3.3,3.3,0,0,0,.2-.37l.2-.58a.33.33,0,0,0-.17-.35h5.29a.91.91,0,0,0-.46-.77,1.94,1.94,0,0,0-1.12-.31,2.18,2.18,0,0,0-.82.15,1.4,1.4,0,0,0-.54.39H38.85a.91.91,0,0,0,.46.76,1.94,1.94,0,0,0,1.12.31,2.18,2.18,0,0,0,.82-.15,1.49,1.49,0,0,0,.54-.38H45a13.61,13.61,0,0,1-.72,1.71A11.25,11.25,0,0,1,43,42.53a13.25,13.25,0,0,1-1.92,1.89A10.82,10.82,0,0,1,38.45,46l.27.33A15.26,15.26,0,0,0,47,41a40,40,0,0,0,4.92,5A1,1,0,0,0,53.06,46h0a1.67,1.67,0,0,0,.33-.54A2,2,0,0,0,53.32,44.35Z" transform="translate(-1.99 -22.76)"/><circle class="cls-1" cx="19.19" cy="9.41" r="0.19"/><circle class="cls-1" cx="22.77" cy="13.4" r="0.19"/><circle class="cls-1" cx="7.77" cy="9.41" r="0.19"/><circle class="cls-1" cx="4.2" cy="13.4" r="0.19"/><circle class="cls-1" cx="19.5" cy="26.56" r="0.19"/><circle class="cls-1" cx="23.07" cy="22.57" r="0.19"/><circle class="cls-1" cx="8.08" cy="26.56" r="0.19"/><circle class="cls-1" cx="4.5" cy="22.57" r="0.19"/><path class="cls-1" d="M15.36,30.38a1.15,1.15,0,0,1,.38.62l-.07-1.31A1,1,0,0,1,15.36,30.38Z" transform="translate(-1.99 -22.76)"/><path class="cls-1" d="M15.67,29.69,15.74,31a1.18,1.18,0,0,1,.31-.66A1.07,1.07,0,0,1,15.67,29.69Z" transform="translate(-1.99 -22.76)"/><path class="cls-1" d="M15.36,51a1.15,1.15,0,0,1,.38.63l-.07-1.32A1,1,0,0,1,15.36,51Z" transform="translate(-1.99 -22.76)"/><path class="cls-1" d="M15.67,50.3l.07,1.32a1.18,1.18,0,0,1,.31-.66A1.11,1.11,0,0,1,15.67,50.3Z" transform="translate(-1.99 -22.76)"/><path class="cls-1" d="M26,40.66a1.21,1.21,0,0,1-.63.38L26.71,41A1,1,0,0,1,26,40.66Z" transform="translate(-1.99 -22.76)"/><path class="cls-1" d="M26.71,41,25.39,41a1.16,1.16,0,0,1,.66.32A1,1,0,0,1,26.71,41Z" transform="translate(-1.99 -22.76)"/><path class="cls-1" d="M5.4,40.66a1.15,1.15,0,0,1-.62.38L6.09,41A1.06,1.06,0,0,1,5.4,40.66Z" transform="translate(-1.99 -22.76)"/><path class="cls-1" d="M6.09,41,4.78,41a1.16,1.16,0,0,1,.66.32A1,1,0,0,1,6.09,41Z" transform="translate(-1.99 -22.76)"/><path class="cls-2" d="M15.74,52.16a11.51,11.51,0,1,1,11.51-11.5A11.51,11.51,0,0,1,15.74,52.16Zm0-22.92A11.42,11.42,0,1,0,27.16,40.66,11.43,11.43,0,0,0,15.74,29.24Z" transform="translate(-1.99 -22.76)"/><path class="cls-2" d="M15.74,54.28A13.63,13.63,0,1,1,29.36,40.66,13.64,13.64,0,0,1,15.74,54.28Zm0-27.08A13.46,13.46,0,1,0,29.19,40.66,13.47,13.47,0,0,0,15.74,27.2Z" transform="translate(-1.99 -22.76)"/><polygon class="cls-1" points="12.91 12.52 12.91 12.52 12.91 12.52 12.91 12.52"/><path class="cls-1" d="M12.65,41.08Z" transform="translate(-1.99 -22.76)"/><path class="cls-1" d="M17.69,46.17h0S17.69,46.17,17.69,46.17Z" transform="translate(-1.99 -22.76)"/><path class="cls-1" d="M18,41.71V39.55l-.92-.08h0s-.06,0-.06.05,0,0,0,0l0,0,.34,0v.61H16.18v-.67l-.92-.08h0s-.06,0-.06.05a.05.05,0,0,0,0,0l0,0,.33,0v2.66A.81.81,0,0,0,16.1,42h1.34v.31C18.06,42.12,18,41.71,18,41.71Zm-.6-.41v.45H16.18V40.42h1.26Z" transform="translate(-1.99 -22.76)"/><path class="cls-1" d="M14.19,40.06a2.85,2.85,0,0,1-.75.21,5.63,5.63,0,0,1-.63.06h-.74V38.66c0-.1,0-.19,0-.19-.06-.2-.18-.24-.25-.24h-.58c-.05,0-.07,0-.07.06s0,.07.07.07h.23v2a.28.28,0,0,0,0,.13.16.16,0,0,0,.07.09.2.2,0,0,0,.14,0h.76a4.79,4.79,0,0,0,.79-.06,4.7,4.7,0,0,0,.65-.17,2.57,2.57,0,0,0,.53-.23l.26-.16v-.25A2.7,2.7,0,0,1,14.19,40.06Z" transform="translate(-1.99 -22.76)"/><path class="cls-1" d="M15.28,39.07h.94a.48.48,0,0,0-.13-.32.38.38,0,0,0-.3-.13.46.46,0,0,0-.23.06.52.52,0,0,0-.15.18h-.13V37.71l-.92-.09h0s-.07,0-.07.06l0,0,0,0,.34,0v3c.62-.16.59-.63.59-.63Z" transform="translate(-1.99 -22.76)"/><path class="cls-1" d="M19.56,40.54h.93a.44.44,0,0,0-.13-.32.38.38,0,0,0-.3-.13.4.4,0,0,0-.22.06.46.46,0,0,0-.16.18h-.12V39.18l-.93-.1h0s-.06,0-.06.07a.08.08,0,0,0,0,0l0,0,.34,0v3c.62-.17.6-.64.6-.64Z" transform="translate(-1.99 -22.76)"/><polygon class="cls-3" points="20.42 21.16 20.42 21.15 20.42 21.16 20.42 21.16"/><path class="cls-1" d="M20,44.26a.09.09,0,0,0-.07,0l-.24-.07V42.77h0a.22.22,0,0,0-.06-.13.17.17,0,0,0-.06-.06.51.51,0,0,0-.28-.08.65.65,0,0,0-.21,0,.39.39,0,0,0-.14.1h-2l-.6-.06-.32,0h0s-.06,0-.06,0h0s0,0,0,0l0,0,.33,0v2a.85.85,0,0,0,.49-.27h3.12a.08.08,0,0,0,.07,0s0,0,0-.07S20,44.28,20,44.26Zm-1,0H16.91a.28.28,0,0,0,0-.08h0v-1.3h2Z" transform="translate(-1.99 -22.76)"/><path class="cls-2" d="M17.71,25.66H13.78a.94.94,0,0,1-.95-.94v-.89a1,1,0,0,1,.95-.95h3.93a1,1,0,0,1,.94.95v.89A.94.94,0,0,1,17.71,25.66Zm-3.93-2.61a.78.78,0,0,0-.78.78v.89a.78.78,0,0,0,.78.77h3.93a.78.78,0,0,0,.77-.77v-.89a.78.78,0,0,0-.77-.78Z" transform="translate(-1.99 -22.76)"/><rect class="cls-2" x="12.64" y="2.82" width="0.17" height="1.62"/><rect class="cls-2" x="14.69" y="2.82" width="0.17" height="1.62"/><rect class="cls-1" x="22.53" y="28.15" width="2.35" height="0.37" rx="0.16" transform="translate(19.23 -31.28) rotate(36.06)"/><rect class="cls-1" x="23.19" y="28.33" width="0.29" height="1" transform="translate(19.45 -30.97) rotate(36.06)"/><path class="cls-1" d="M11.24,55.08a1.11,1.11,0,0,1,.29.07.63.63,0,0,1,.41.28.48.48,0,0,1,0,.41.55.55,0,0,1-.27.34.7.7,0,0,1-.54,0l-.24-.09Zm-.23,1,.18.06a.49.49,0,0,0,.7-.32c.08-.26,0-.49-.38-.6a.76.76,0,0,0-.21-.05Z" transform="translate(-1.99 -22.76)"/><path class="cls-1" d="M12.91,56.64v-.11h0a.35.35,0,0,1-.29.07.22.22,0,0,1-.2-.26c0-.18.23-.25.56-.17v0a.2.2,0,0,0-.17-.26.33.33,0,0,0-.22,0v-.06a.59.59,0,0,1,.26,0,.28.28,0,0,1,.22.36l-.07.3a1.1,1.1,0,0,0,0,.18Zm.07-.41c-.18,0-.42-.07-.46.11a.16.16,0,0,0,.13.2.29.29,0,0,0,.28-.1.11.11,0,0,0,0,0Z" transform="translate(-1.99 -22.76)"/><path class="cls-1" d="M13.75,56l.15.53a1.16,1.16,0,0,1,0,.18h0l.09-.17.27-.47h.09l-.33.55a1.16,1.16,0,0,1-.34.43.46.46,0,0,1-.16.06l0-.07A.52.52,0,0,0,13.7,57a.75.75,0,0,0,.17-.18v-.07L13.66,56Z" transform="translate(-1.99 -22.76)"/><path class="cls-1" d="M15.64,56.94l-.12-.13a.51.51,0,0,1-.37.13.31.31,0,0,1-.31-.32.35.35,0,0,1,.24-.31h0a.4.4,0,0,1-.09-.24.25.25,0,0,1,.28-.24.21.21,0,0,1,.22.22c0,.12-.09.21-.29.29h0l.32.38a.63.63,0,0,0,.14-.34h.08a.79.79,0,0,1-.17.39l.18.19Zm-.17-.17-.35-.41a.31.31,0,0,0-.2.25.25.25,0,0,0,.25.27A.41.41,0,0,0,15.47,56.77Zm-.4-.71a.34.34,0,0,0,.09.22c.14-.06.24-.12.25-.23a.15.15,0,0,0-.15-.17A.18.18,0,0,0,15.07,56.06Z" transform="translate(-1.99 -22.76)"/><path class="cls-1" d="M16.37,56.94l-.06-1.08h.08l.49.62a2.42,2.42,0,0,1,.24.33h0c0-.14,0-.27,0-.44l0-.54h.08l.06,1.09h-.08l-.48-.61a3.25,3.25,0,0,1-.25-.34h0c0,.13,0,.25,0,.43l0,.55Z" transform="translate(-1.99 -22.76)"/><path class="cls-1" d="M18,55.81a.07.07,0,0,1-.14,0,.07.07,0,0,1,.06-.07A.07.07,0,0,1,18,55.81Zm0,1-.1-.77H18l.1.77Z" transform="translate(-1.99 -22.76)"/><path class="cls-1" d="M19.29,55.8c0,.06,0,.12,0,.2l.09.45a.37.37,0,0,1-.3.52.52.52,0,0,1-.28,0l0-.07a.43.43,0,0,0,.26,0,.28.28,0,0,0,.23-.37l0-.11h0a.32.32,0,0,1-.26.21.37.37,0,0,1-.43-.3.39.39,0,0,1,.29-.49.33.33,0,0,1,.31.09h0l0-.13Zm0,.31a.14.14,0,0,0,0-.07.26.26,0,0,0-.29-.12.33.33,0,0,0,.13.65.28.28,0,0,0,.22-.23v-.08Z" transform="translate(-1.99 -22.76)"/><path class="cls-1" d="M19.84,55.27l.08,0,.15.49h0a.29.29,0,0,1,.08-.14.29.29,0,0,1,.15-.09.28.28,0,0,1,.37.22l.14.45-.08,0-.13-.44c0-.14-.14-.24-.3-.19a.25.25,0,0,0-.19.24.12.12,0,0,0,0,.08l.13.45-.08,0Z" transform="translate(-1.99 -22.76)"/><path class="cls-1" d="M21.25,55l.08.21.22-.08,0,0-.23.09.18.47c0,.09.09.14.18.11l.08-.05,0,.05-.1.06a.15.15,0,0,1-.16,0s-.08-.08-.11-.15l-.18-.46-.13.05,0-.06.13,0L21.18,55Z" transform="translate(-1.99 -22.76)"/><path class="cls-1" d="M15.23,42.52a.5.5,0,0,0-.18-.23l-.22-.15-.38-.26L14,41.62l-.26-.16.05-.09s0-.15,0-.15a.12.12,0,0,0,0-.09h1.34a.23.23,0,0,0-.12-.19.51.51,0,0,0-.28-.08.46.46,0,0,0-.21,0,.3.3,0,0,0-.14.1H11.56a.23.23,0,0,0,.12.19.51.51,0,0,0,.28.08.46.46,0,0,0,.21,0,.36.36,0,0,0,.14-.1h.81a2.93,2.93,0,0,1-.18.44,3.24,3.24,0,0,1-.33.49,4.48,4.48,0,0,1-.49.48,2.81,2.81,0,0,1-.66.39l.07.09a3.88,3.88,0,0,0,2.1-1.35A9.9,9.9,0,0,0,14.87,43a.25.25,0,0,0,.29,0h0a.37.37,0,0,0,.08-.14A.5.5,0,0,0,15.23,42.52Z" transform="translate(-1.99 -22.76)"/></svg>